<?xml version="1.0" encoding="UTF-8" standalone="no"?>
<!DOCTYPE svg PUBLIC "-//W3C//DTD SVG 1.1//EN"
 "http://www.w3.org/Graphics/SVG/1.1/DTD/svg11.dtd">
<!-- Generated by graphviz version 2.40.1 (20161225.0304)
 -->
<!-- Title: dependencies Pages: 1 -->
<svg width="1110pt" height="211pt"
 viewBox="0.00 0.00 1110.00 211.00" xmlns="http://www.w3.org/2000/svg" xmlns:xlink="http://www.w3.org/1999/xlink">
<g id="graph0" class="graph" transform="scale(1 1) rotate(0) translate(4 207)">
<title>dependencies</title>
<polygon fill="#ffffff" stroke="transparent" points="-4,4 -4,-207 1106,-207 1106,4 -4,4"/>
<text text-anchor="start" x="530.0091" y="-42.4" font-family="sans-serif" font-weight="bold" font-size="14.00" fill="#000000">Legend</text>
<polygon fill="#ffffb3" stroke="transparent" points="317,-10 317,-30 337,-30 337,-10 317,-10"/>
<text text-anchor="start" x="340.629" y="-15.4" font-family="sans-serif" font-size="14.00" fill="#000000"> &#160;Declarations</text>
<polygon fill="#8dd3c7" stroke="transparent" points="430,-10 430,-30 450,-30 450,-10 430,-10"/>
<text text-anchor="start" x="453.7251" y="-15.4" font-family="sans-serif" font-size="14.00" fill="#000000"> &#160;Module</text>
<polygon fill="#80b1d3" stroke="transparent" points="516,-10 516,-30 536,-30 536,-10 516,-10"/>
<text text-anchor="start" x="539.7812" y="-15.4" font-family="sans-serif" font-size="14.00" fill="#000000"> &#160;Bootstrap</text>
<polygon fill="#fdb462" stroke="transparent" points="613,-10 613,-30 633,-30 633,-10 613,-10"/>
<text text-anchor="start" x="636.6732" y="-15.4" font-family="sans-serif" font-size="14.00" fill="#000000"> &#160;Providers</text>
<polygon fill="#fb8072" stroke="transparent" points="709,-10 709,-30 729,-30 729,-10 709,-10"/>
<text text-anchor="start" x="732.7258" y="-15.4" font-family="sans-serif" font-size="14.00" fill="#000000"> &#160;Exports</text>
<g id="clust1" class="cluster">
<title>cluster_HospitalStaffModule</title>
<polygon fill="none" stroke="#000000" stroke-dasharray="1,5" points="8,-70 8,-195 1094,-195 1094,-70 8,-70"/>
</g>
<g id="clust2" class="cluster">
<title>cluster_HospitalStaffModule_declarations</title>
<polygon fill="none" stroke="#000000" points="344,-78 344,-130 1086,-130 1086,-78 344,-78"/>
</g>
<g id="clust8" class="cluster">
<title>cluster_HospitalStaffModule_imports</title>
<polygon fill="none" stroke="#000000" points="16,-78 16,-130 336,-130 336,-78 16,-78"/>
</g>
<!-- EditProfileComponent -->
<g id="node1" class="node">
<title>EditProfileComponent</title>
<polygon fill="#ffffb3" stroke="#000000" points="1078.266,-122 935.734,-122 935.734,-86 1078.266,-86 1078.266,-122"/>
<text text-anchor="middle" x="1007" y="-99.8" font-family="Times,serif" font-size="14.00" fill="#000000">EditProfileComponent</text>
</g>
<!-- HospitalStaffModule -->
<g id="node6" class="node">
<title>HospitalStaffModule</title>
<polygon fill="#8dd3c7" stroke="#000000" points="645.1965,-187 642.1965,-191 621.1965,-191 618.1965,-187 510.8035,-187 510.8035,-151 645.1965,-151 645.1965,-187"/>
<text text-anchor="middle" x="578" y="-164.8" font-family="Times,serif" font-size="14.00" fill="#000000">HospitalStaffModule</text>
</g>
<!-- EditProfileComponent&#45;&gt;HospitalStaffModule -->
<g id="edge1" class="edge">
<title>EditProfileComponent&#45;&gt;HospitalStaffModule</title>
<path fill="none" stroke="#000000" d="M1007,-122.2921C1007,-144.2057 1007,-178 1007,-178 1007,-178 655.5032,-178 655.5032,-178"/>
<polygon fill="#000000" stroke="#000000" points="655.5032,-174.5001 645.5032,-178 655.5031,-181.5001 655.5032,-174.5001"/>
</g>
<!-- FooterComponent -->
<g id="node2" class="node">
<title>FooterComponent</title>
<polygon fill="#ffffb3" stroke="#000000" points="917.8809,-122 800.1191,-122 800.1191,-86 917.8809,-86 917.8809,-122"/>
<text text-anchor="middle" x="859" y="-99.8" font-family="Times,serif" font-size="14.00" fill="#000000">FooterComponent</text>
</g>
<!-- FooterComponent&#45;&gt;HospitalStaffModule -->
<g id="edge2" class="edge">
<title>FooterComponent&#45;&gt;HospitalStaffModule</title>
<path fill="none" stroke="#000000" d="M859,-122.1061C859,-141.3391 859,-169 859,-169 859,-169 655.3065,-169 655.3065,-169"/>
<polygon fill="#000000" stroke="#000000" points="655.3065,-165.5001 645.3065,-169 655.3065,-172.5001 655.3065,-165.5001"/>
</g>
<!-- HeaderComponent -->
<g id="node3" class="node">
<title>HeaderComponent</title>
<polygon fill="#ffffb3" stroke="#000000" points="781.7437,-122 660.2563,-122 660.2563,-86 781.7437,-86 781.7437,-122"/>
<text text-anchor="middle" x="721" y="-99.8" font-family="Times,serif" font-size="14.00" fill="#000000">HeaderComponent</text>
</g>
<!-- HeaderComponent&#45;&gt;HospitalStaffModule -->
<g id="edge3" class="edge">
<title>HeaderComponent&#45;&gt;HospitalStaffModule</title>
<path fill="none" stroke="#000000" d="M721,-122.027C721,-138.3976 721,-160 721,-160 721,-160 655.3127,-160 655.3127,-160"/>
<polygon fill="#000000" stroke="#000000" points="655.3127,-156.5001 645.3127,-160 655.3126,-163.5001 655.3127,-156.5001"/>
</g>
<!-- HospitalComponent -->
<g id="node4" class="node">
<title>HospitalComponent</title>
<polygon fill="#ffffb3" stroke="#000000" points="642.2702,-122 513.7298,-122 513.7298,-86 642.2702,-86 642.2702,-122"/>
<text text-anchor="middle" x="578" y="-99.8" font-family="Times,serif" font-size="14.00" fill="#000000">HospitalComponent</text>
</g>
<!-- HospitalComponent&#45;&gt;HospitalStaffModule -->
<g id="edge4" class="edge">
<title>HospitalComponent&#45;&gt;HospitalStaffModule</title>
<path fill="none" stroke="#000000" d="M578,-122.1061C578,-122.1061 578,-140.991 578,-140.991"/>
<polygon fill="#000000" stroke="#000000" points="574.5001,-140.9909 578,-150.991 581.5001,-140.991 574.5001,-140.9909"/>
</g>
<!-- PatientInfoComponent -->
<g id="node5" class="node">
<title>PatientInfoComponent</title>
<polygon fill="#ffffb3" stroke="#000000" points="495.5379,-122 352.4621,-122 352.4621,-86 495.5379,-86 495.5379,-122"/>
<text text-anchor="middle" x="424" y="-99.8" font-family="Times,serif" font-size="14.00" fill="#000000">PatientInfoComponent</text>
</g>
<!-- PatientInfoComponent&#45;&gt;HospitalStaffModule -->
<g id="edge5" class="edge">
<title>PatientInfoComponent&#45;&gt;HospitalStaffModule</title>
<path fill="none" stroke="#000000" d="M424,-122.027C424,-138.3976 424,-160 424,-160 424,-160 500.9013,-160 500.9013,-160"/>
<polygon fill="#000000" stroke="#000000" points="500.9014,-163.5001 510.9013,-160 500.9013,-156.5001 500.9014,-163.5001"/>
</g>
<!-- HospitalStaffRoutingModule -->
<g id="node7" class="node">
<title>HospitalStaffRoutingModule</title>
<polygon fill="#8dd3c7" stroke="#000000" points="327.8145,-122 324.8145,-126 303.8145,-126 300.8145,-122 148.1855,-122 148.1855,-86 327.8145,-86 327.8145,-122"/>
<text text-anchor="middle" x="238" y="-99.8" font-family="Times,serif" font-size="14.00" fill="#000000">HospitalStaffRoutingModule</text>
</g>
<!-- HospitalStaffRoutingModule&#45;&gt;HospitalStaffModule -->
<g id="edge6" class="edge">
<title>HospitalStaffRoutingModule&#45;&gt;HospitalStaffModule</title>
<path fill="none" stroke="#000000" d="M238,-122.1061C238,-141.3391 238,-169 238,-169 238,-169 500.8269,-169 500.8269,-169"/>
<polygon fill="#000000" stroke="#000000" points="500.827,-172.5001 510.8269,-169 500.8269,-165.5001 500.827,-172.5001"/>
</g>
<!-- MaterialModule -->
<g id="node8" class="node">
<title>MaterialModule</title>
<polygon fill="#8dd3c7" stroke="#000000" points="130.4706,-122 127.4706,-126 106.4706,-126 103.4706,-122 23.5294,-122 23.5294,-86 130.4706,-86 130.4706,-122"/>
<text text-anchor="middle" x="77" y="-99.8" font-family="Times,serif" font-size="14.00" fill="#000000">MaterialModule</text>
</g>
<!-- MaterialModule&#45;&gt;HospitalStaffModule -->
<g id="edge7" class="edge">
<title>MaterialModule&#45;&gt;HospitalStaffModule</title>
<path fill="none" stroke="#000000" d="M77,-122.2921C77,-144.2057 77,-178 77,-178 77,-178 500.693,-178 500.693,-178"/>
<polygon fill="#000000" stroke="#000000" points="500.6931,-181.5001 510.693,-178 500.693,-174.5001 500.6931,-181.5001"/>
</g>
</g>
</svg>
