<?xml version="1.0" encoding="UTF-8" standalone="no"?>
<!DOCTYPE svg PUBLIC "-//W3C//DTD SVG 1.1//EN"
 "http://www.w3.org/Graphics/SVG/1.1/DTD/svg11.dtd">
<!-- Generated by graphviz version 2.40.1 (20161225.0304)
 -->
<!-- Title: dependencies Pages: 1 -->
<svg width="970pt" height="211pt"
 viewBox="0.00 0.00 970.00 211.00" xmlns="http://www.w3.org/2000/svg" xmlns:xlink="http://www.w3.org/1999/xlink">
<g id="graph0" class="graph" transform="scale(1 1) rotate(0) translate(4 207)">
<title>dependencies</title>
<polygon fill="#ffffff" stroke="transparent" points="-4,4 -4,-207 966,-207 966,4 -4,4"/>
<text text-anchor="start" x="460.0091" y="-42.4" font-family="sans-serif" font-weight="bold" font-size="14.00" fill="#000000">Legend</text>
<polygon fill="#ffffb3" stroke="transparent" points="247,-10 247,-30 267,-30 267,-10 247,-10"/>
<text text-anchor="start" x="270.629" y="-15.4" font-family="sans-serif" font-size="14.00" fill="#000000"> &#160;Declarations</text>
<polygon fill="#8dd3c7" stroke="transparent" points="360,-10 360,-30 380,-30 380,-10 360,-10"/>
<text text-anchor="start" x="383.7251" y="-15.4" font-family="sans-serif" font-size="14.00" fill="#000000"> &#160;Module</text>
<polygon fill="#80b1d3" stroke="transparent" points="446,-10 446,-30 466,-30 466,-10 446,-10"/>
<text text-anchor="start" x="469.7812" y="-15.4" font-family="sans-serif" font-size="14.00" fill="#000000"> &#160;Bootstrap</text>
<polygon fill="#fdb462" stroke="transparent" points="543,-10 543,-30 563,-30 563,-10 543,-10"/>
<text text-anchor="start" x="566.6732" y="-15.4" font-family="sans-serif" font-size="14.00" fill="#000000"> &#160;Providers</text>
<polygon fill="#fb8072" stroke="transparent" points="639,-10 639,-30 659,-30 659,-10 639,-10"/>
<text text-anchor="start" x="662.7258" y="-15.4" font-family="sans-serif" font-size="14.00" fill="#000000"> &#160;Exports</text>
<g id="clust1" class="cluster">
<title>cluster_HospitalStaffModule</title>
<polygon fill="none" stroke="#000000" stroke-dasharray="1,5" points="8,-70 8,-195 954,-195 954,-70 8,-70"/>
</g>
<g id="clust2" class="cluster">
<title>cluster_HospitalStaffModule_declarations</title>
<polygon fill="none" stroke="#000000" points="344,-78 344,-130 946,-130 946,-78 344,-78"/>
</g>
<g id="clust7" class="cluster">
<title>cluster_HospitalStaffModule_imports</title>
<polygon fill="none" stroke="#000000" points="16,-78 16,-130 336,-130 336,-78 16,-78"/>
</g>
<!-- EditProfileComponent -->
<g id="node1" class="node">
<title>EditProfileComponent</title>
<polygon fill="#ffffb3" stroke="#000000" points="938.266,-122 795.734,-122 795.734,-86 938.266,-86 938.266,-122"/>
<text text-anchor="middle" x="867" y="-99.8" font-family="Times,serif" font-size="14.00" fill="#000000">EditProfileComponent</text>
</g>
<!-- HospitalStaffModule -->
<g id="node5" class="node">
<title>HospitalStaffModule</title>
<polygon fill="#8dd3c7" stroke="#000000" points="568.1965,-187 565.1965,-191 544.1965,-191 541.1965,-187 433.8035,-187 433.8035,-151 568.1965,-151 568.1965,-187"/>
<text text-anchor="middle" x="501" y="-164.8" font-family="Times,serif" font-size="14.00" fill="#000000">HospitalStaffModule</text>
</g>
<!-- EditProfileComponent&#45;&gt;HospitalStaffModule -->
<g id="edge1" class="edge">
<title>EditProfileComponent&#45;&gt;HospitalStaffModule</title>
<path fill="none" stroke="#000000" d="M867,-122.2843C867,-143.3211 867,-175 867,-175 867,-175 578.13,-175 578.13,-175"/>
<polygon fill="#000000" stroke="#000000" points="578.1301,-171.5001 568.13,-175 578.13,-178.5001 578.1301,-171.5001"/>
</g>
<!-- FooterComponent -->
<g id="node2" class="node">
<title>FooterComponent</title>
<polygon fill="#ffffb3" stroke="#000000" points="777.8809,-122 660.1191,-122 660.1191,-86 777.8809,-86 777.8809,-122"/>
<text text-anchor="middle" x="719" y="-99.8" font-family="Times,serif" font-size="14.00" fill="#000000">FooterComponent</text>
</g>
<!-- FooterComponent&#45;&gt;HospitalStaffModule -->
<g id="edge2" class="edge">
<title>FooterComponent&#45;&gt;HospitalStaffModule</title>
<path fill="none" stroke="#000000" d="M719,-122.0225C719,-139.3734 719,-163 719,-163 719,-163 578.186,-163 578.186,-163"/>
<polygon fill="#000000" stroke="#000000" points="578.186,-159.5001 568.186,-163 578.186,-166.5001 578.186,-159.5001"/>
</g>
<!-- HospitalComponent -->
<g id="node3" class="node">
<title>HospitalComponent</title>
<polygon fill="#ffffb3" stroke="#000000" points="642.2702,-122 513.7298,-122 513.7298,-86 642.2702,-86 642.2702,-122"/>
<text text-anchor="middle" x="578" y="-99.8" font-family="Times,serif" font-size="14.00" fill="#000000">HospitalComponent</text>
</g>
<!-- HospitalComponent&#45;&gt;HospitalStaffModule -->
<g id="edge3" class="edge">
<title>HospitalComponent&#45;&gt;HospitalStaffModule</title>
<path fill="none" stroke="#000000" d="M540.8566,-122.1061C540.8566,-122.1061 540.8566,-140.991 540.8566,-140.991"/>
<polygon fill="#000000" stroke="#000000" points="537.3567,-140.9909 540.8566,-150.991 544.3567,-140.991 537.3567,-140.9909"/>
</g>
<!-- PatientInfoComponent -->
<g id="node4" class="node">
<title>PatientInfoComponent</title>
<polygon fill="#ffffb3" stroke="#000000" points="495.5379,-122 352.4621,-122 352.4621,-86 495.5379,-86 495.5379,-122"/>
<text text-anchor="middle" x="424" y="-99.8" font-family="Times,serif" font-size="14.00" fill="#000000">PatientInfoComponent</text>
</g>
<!-- PatientInfoComponent&#45;&gt;HospitalStaffModule -->
<g id="edge4" class="edge">
<title>PatientInfoComponent&#45;&gt;HospitalStaffModule</title>
<path fill="none" stroke="#000000" d="M464.8352,-122.1061C464.8352,-122.1061 464.8352,-140.991 464.8352,-140.991"/>
<polygon fill="#000000" stroke="#000000" points="461.3353,-140.9909 464.8352,-150.991 468.3353,-140.991 461.3353,-140.9909"/>
</g>
<!-- HospitalStaffRoutingModule -->
<g id="node6" class="node">
<title>HospitalStaffRoutingModule</title>
<polygon fill="#8dd3c7" stroke="#000000" points="327.8145,-122 324.8145,-126 303.8145,-126 300.8145,-122 148.1855,-122 148.1855,-86 327.8145,-86 327.8145,-122"/>
<text text-anchor="middle" x="238" y="-99.8" font-family="Times,serif" font-size="14.00" fill="#000000">HospitalStaffRoutingModule</text>
</g>
<!-- HospitalStaffRoutingModule&#45;&gt;HospitalStaffModule -->
<g id="edge5" class="edge">
<title>HospitalStaffRoutingModule&#45;&gt;HospitalStaffModule</title>
<path fill="none" stroke="#000000" d="M238,-122.0225C238,-139.3734 238,-163 238,-163 238,-163 423.6125,-163 423.6125,-163"/>
<polygon fill="#000000" stroke="#000000" points="423.6125,-166.5001 433.6125,-163 423.6125,-159.5001 423.6125,-166.5001"/>
</g>
<!-- MaterialModule -->
<g id="node7" class="node">
<title>MaterialModule</title>
<polygon fill="#8dd3c7" stroke="#000000" points="130.4706,-122 127.4706,-126 106.4706,-126 103.4706,-122 23.5294,-122 23.5294,-86 130.4706,-86 130.4706,-122"/>
<text text-anchor="middle" x="77" y="-99.8" font-family="Times,serif" font-size="14.00" fill="#000000">MaterialModule</text>
</g>
<!-- MaterialModule&#45;&gt;HospitalStaffModule -->
<g id="edge6" class="edge">
<title>MaterialModule&#45;&gt;HospitalStaffModule</title>
<path fill="none" stroke="#000000" d="M77,-122.2843C77,-143.3211 77,-175 77,-175 77,-175 423.8159,-175 423.8159,-175"/>
<polygon fill="#000000" stroke="#000000" points="423.816,-178.5001 433.8159,-175 423.8159,-171.5001 423.816,-178.5001"/>
</g>
</g>
</svg>
