<?xml version="1.0" encoding="UTF-8" standalone="no"?>
<!DOCTYPE svg PUBLIC "-//W3C//DTD SVG 1.1//EN"
 "http://www.w3.org/Graphics/SVG/1.1/DTD/svg11.dtd">
<!-- Generated by graphviz version 2.40.1 (20161225.0304)
 -->
<!-- Title: dependencies Pages: 1 -->
<svg width="504pt" height="211pt"
 viewBox="0.00 0.00 504.00 211.00" xmlns="http://www.w3.org/2000/svg" xmlns:xlink="http://www.w3.org/1999/xlink">
<g id="graph0" class="graph" transform="scale(1 1) rotate(0) translate(4 207)">
<title>dependencies</title>
<polygon fill="#ffffff" stroke="transparent" points="-4,4 -4,-207 500,-207 500,4 -4,4"/>
<text text-anchor="start" x="227.0091" y="-42.4" font-family="sans-serif" font-weight="bold" font-size="14.00" fill="#000000">Legend</text>
<polygon fill="#ffffb3" stroke="transparent" points="14,-10 14,-30 34,-30 34,-10 14,-10"/>
<text text-anchor="start" x="37.629" y="-15.4" font-family="sans-serif" font-size="14.00" fill="#000000"> &#160;Declarations</text>
<polygon fill="#8dd3c7" stroke="transparent" points="127,-10 127,-30 147,-30 147,-10 127,-10"/>
<text text-anchor="start" x="150.7251" y="-15.4" font-family="sans-serif" font-size="14.00" fill="#000000"> &#160;Module</text>
<polygon fill="#80b1d3" stroke="transparent" points="213,-10 213,-30 233,-30 233,-10 213,-10"/>
<text text-anchor="start" x="236.7812" y="-15.4" font-family="sans-serif" font-size="14.00" fill="#000000"> &#160;Bootstrap</text>
<polygon fill="#fdb462" stroke="transparent" points="310,-10 310,-30 330,-30 330,-10 310,-10"/>
<text text-anchor="start" x="333.6732" y="-15.4" font-family="sans-serif" font-size="14.00" fill="#000000"> &#160;Providers</text>
<polygon fill="#fb8072" stroke="transparent" points="406,-10 406,-30 426,-30 426,-10 406,-10"/>
<text text-anchor="start" x="429.7258" y="-15.4" font-family="sans-serif" font-size="14.00" fill="#000000"> &#160;Exports</text>
<g id="clust1" class="cluster">
<title>cluster_AuthModule</title>
<polygon fill="none" stroke="#000000" stroke-dasharray="1,5" points="34.5,-70 34.5,-195 461.5,-195 461.5,-70 34.5,-70"/>
</g>
<g id="clust2" class="cluster">
<title>cluster_AuthModule_declarations</title>
<polygon fill="none" stroke="#000000" points="323.5,-78 323.5,-130 453.5,-130 453.5,-78 323.5,-78"/>
</g>
<g id="clust4" class="cluster">
<title>cluster_AuthModule_imports</title>
<polygon fill="none" stroke="#000000" points="42.5,-78 42.5,-130 315.5,-130 315.5,-78 42.5,-78"/>
</g>
<!-- LoginComponent -->
<g id="node1" class="node">
<title>LoginComponent</title>
<polygon fill="#ffffb3" stroke="#000000" points="445.7758,-122 331.2242,-122 331.2242,-86 445.7758,-86 445.7758,-122"/>
<text text-anchor="middle" x="388.5" y="-99.8" font-family="Times,serif" font-size="14.00" fill="#000000">LoginComponent</text>
</g>
<!-- AuthModule -->
<g id="node2" class="node">
<title>AuthModule</title>
<polygon fill="#8dd3c7" stroke="#000000" points="285.0482,-187 282.0482,-191 261.0482,-191 258.0482,-187 197.9518,-187 197.9518,-151 285.0482,-151 285.0482,-187"/>
<text text-anchor="middle" x="241.5" y="-164.8" font-family="Times,serif" font-size="14.00" fill="#000000">AuthModule</text>
</g>
<!-- LoginComponent&#45;&gt;AuthModule -->
<g id="edge1" class="edge">
<title>LoginComponent&#45;&gt;AuthModule</title>
<path fill="none" stroke="#000000" d="M388.5,-122.1061C388.5,-141.3391 388.5,-169 388.5,-169 388.5,-169 295.2068,-169 295.2068,-169"/>
<polygon fill="#000000" stroke="#000000" points="295.2069,-165.5001 285.2068,-169 295.2068,-172.5001 295.2069,-165.5001"/>
</g>
<!-- AuthRoutingModule -->
<g id="node3" class="node">
<title>AuthRoutingModule</title>
<polygon fill="#8dd3c7" stroke="#000000" points="307.6652,-122 304.6652,-126 283.6652,-126 280.6652,-122 175.3348,-122 175.3348,-86 307.6652,-86 307.6652,-122"/>
<text text-anchor="middle" x="241.5" y="-99.8" font-family="Times,serif" font-size="14.00" fill="#000000">AuthRoutingModule</text>
</g>
<!-- AuthRoutingModule&#45;&gt;AuthModule -->
<g id="edge2" class="edge">
<title>AuthRoutingModule&#45;&gt;AuthModule</title>
<path fill="none" stroke="#000000" d="M241.5,-122.1061C241.5,-122.1061 241.5,-140.991 241.5,-140.991"/>
<polygon fill="#000000" stroke="#000000" points="238.0001,-140.9909 241.5,-150.991 245.0001,-140.991 238.0001,-140.9909"/>
</g>
<!-- MaterialModule -->
<g id="node4" class="node">
<title>MaterialModule</title>
<polygon fill="#8dd3c7" stroke="#000000" points="156.9706,-122 153.9706,-126 132.9706,-126 129.9706,-122 50.0294,-122 50.0294,-86 156.9706,-86 156.9706,-122"/>
<text text-anchor="middle" x="103.5" y="-99.8" font-family="Times,serif" font-size="14.00" fill="#000000">MaterialModule</text>
</g>
<!-- MaterialModule&#45;&gt;AuthModule -->
<g id="edge3" class="edge">
<title>MaterialModule&#45;&gt;AuthModule</title>
<path fill="none" stroke="#000000" d="M103.5,-122.1061C103.5,-141.3391 103.5,-169 103.5,-169 103.5,-169 187.8359,-169 187.8359,-169"/>
<polygon fill="#000000" stroke="#000000" points="187.836,-172.5001 197.8359,-169 187.8359,-165.5001 187.836,-172.5001"/>
</g>
</g>
</svg>
