<?xml version="1.0" encoding="UTF-8" standalone="no"?>
<!DOCTYPE svg PUBLIC "-//W3C//DTD SVG 1.1//EN"
 "http://www.w3.org/Graphics/SVG/1.1/DTD/svg11.dtd">
<!-- Generated by graphviz version 2.40.1 (20161225.0304)
 -->
<!-- Title: dependencies Pages: 1 -->
<svg width="1913pt" height="211pt"
 viewBox="0.00 0.00 1913.00 211.00" xmlns="http://www.w3.org/2000/svg" xmlns:xlink="http://www.w3.org/1999/xlink">
<g id="graph0" class="graph" transform="scale(1 1) rotate(0) translate(4 207)">
<title>dependencies</title>
<polygon fill="#ffffff" stroke="transparent" points="-4,4 -4,-207 1909,-207 1909,4 -4,4"/>
<text text-anchor="start" x="931.5091" y="-42.4" font-family="sans-serif" font-weight="bold" font-size="14.00" fill="#000000">Legend</text>
<polygon fill="#ffffb3" stroke="transparent" points="718.5,-10 718.5,-30 738.5,-30 738.5,-10 718.5,-10"/>
<text text-anchor="start" x="742.129" y="-15.4" font-family="sans-serif" font-size="14.00" fill="#000000"> &#160;Declarations</text>
<polygon fill="#8dd3c7" stroke="transparent" points="831.5,-10 831.5,-30 851.5,-30 851.5,-10 831.5,-10"/>
<text text-anchor="start" x="855.2251" y="-15.4" font-family="sans-serif" font-size="14.00" fill="#000000"> &#160;Module</text>
<polygon fill="#80b1d3" stroke="transparent" points="917.5,-10 917.5,-30 937.5,-30 937.5,-10 917.5,-10"/>
<text text-anchor="start" x="941.2812" y="-15.4" font-family="sans-serif" font-size="14.00" fill="#000000"> &#160;Bootstrap</text>
<polygon fill="#fdb462" stroke="transparent" points="1014.5,-10 1014.5,-30 1034.5,-30 1034.5,-10 1014.5,-10"/>
<text text-anchor="start" x="1038.1732" y="-15.4" font-family="sans-serif" font-size="14.00" fill="#000000"> &#160;Providers</text>
<polygon fill="#fb8072" stroke="transparent" points="1110.5,-10 1110.5,-30 1130.5,-30 1130.5,-10 1110.5,-10"/>
<text text-anchor="start" x="1134.2258" y="-15.4" font-family="sans-serif" font-size="14.00" fill="#000000"> &#160;Exports</text>
<g id="clust1" class="cluster">
<title>cluster_AdminModule</title>
<polygon fill="none" stroke="#000000" stroke-dasharray="1,5" points="8,-70 8,-195 1897,-195 1897,-70 8,-70"/>
</g>
<g id="clust2" class="cluster">
<title>cluster_AdminModule_declarations</title>
<polygon fill="none" stroke="#000000" points="308,-78 308,-130 1889,-130 1889,-78 308,-78"/>
</g>
<g id="clust14" class="cluster">
<title>cluster_AdminModule_imports</title>
<polygon fill="none" stroke="#000000" points="16,-78 16,-130 300,-130 300,-78 16,-78"/>
</g>
<!-- AdminComponent -->
<g id="node1" class="node">
<title>AdminComponent</title>
<polygon fill="#ffffb3" stroke="#000000" points="1881.2204,-122 1760.7796,-122 1760.7796,-86 1881.2204,-86 1881.2204,-122"/>
<text text-anchor="middle" x="1821" y="-99.8" font-family="Times,serif" font-size="14.00" fill="#000000">AdminComponent</text>
</g>
<!-- AdminModule -->
<g id="node12" class="node">
<title>AdminModule</title>
<polygon fill="#8dd3c7" stroke="#000000" points="974.4386,-187 971.4386,-191 950.4386,-191 947.4386,-187 875.5614,-187 875.5614,-151 974.4386,-151 974.4386,-187"/>
<text text-anchor="middle" x="925" y="-164.8" font-family="Times,serif" font-size="14.00" fill="#000000">AdminModule</text>
</g>
<!-- AdminComponent&#45;&gt;AdminModule -->
<g id="edge1" class="edge">
<title>AdminComponent&#45;&gt;AdminModule</title>
<path fill="none" stroke="#000000" d="M1821,-122.0908C1821,-145.1328 1821,-182 1821,-182 1821,-182 984.4491,-182 984.4491,-182"/>
<polygon fill="#000000" stroke="#000000" points="984.4492,-178.5001 974.4491,-182 984.4491,-185.5001 984.4492,-178.5001"/>
</g>
<!-- DashboardComponent -->
<g id="node2" class="node">
<title>DashboardComponent</title>
<polygon fill="#ffffb3" stroke="#000000" points="1742.9734,-122 1601.0266,-122 1601.0266,-86 1742.9734,-86 1742.9734,-122"/>
<text text-anchor="middle" x="1672" y="-99.8" font-family="Times,serif" font-size="14.00" fill="#000000">DashboardComponent</text>
</g>
<!-- DashboardComponent&#45;&gt;AdminModule -->
<g id="edge2" class="edge">
<title>DashboardComponent&#45;&gt;AdminModule</title>
<path fill="none" stroke="#000000" d="M1672,-122.0449C1672,-143.6623 1672,-177 1672,-177 1672,-177 984.3016,-177 984.3016,-177"/>
<polygon fill="#000000" stroke="#000000" points="984.3017,-173.5001 974.3016,-177 984.3016,-180.5001 984.3017,-173.5001"/>
</g>
<!-- EditProfileComponent -->
<g id="node3" class="node">
<title>EditProfileComponent</title>
<polygon fill="#ffffb3" stroke="#000000" points="1583.266,-122 1440.734,-122 1440.734,-86 1583.266,-86 1583.266,-122"/>
<text text-anchor="middle" x="1512" y="-99.8" font-family="Times,serif" font-size="14.00" fill="#000000">EditProfileComponent</text>
</g>
<!-- EditProfileComponent&#45;&gt;AdminModule -->
<g id="edge3" class="edge">
<title>EditProfileComponent&#45;&gt;AdminModule</title>
<path fill="none" stroke="#000000" d="M1512,-122.2228C1512,-142.3652 1512,-172 1512,-172 1512,-172 984.2893,-172 984.2893,-172"/>
<polygon fill="#000000" stroke="#000000" points="984.2893,-168.5001 974.2893,-172 984.2892,-175.5001 984.2893,-168.5001"/>
</g>
<!-- FooterComponent -->
<g id="node4" class="node">
<title>FooterComponent</title>
<polygon fill="#ffffb3" stroke="#000000" points="1422.8809,-122 1305.1191,-122 1305.1191,-86 1422.8809,-86 1422.8809,-122"/>
<text text-anchor="middle" x="1364" y="-99.8" font-family="Times,serif" font-size="14.00" fill="#000000">FooterComponent</text>
</g>
<!-- FooterComponent&#45;&gt;AdminModule -->
<g id="edge4" class="edge">
<title>FooterComponent&#45;&gt;AdminModule</title>
<path fill="none" stroke="#000000" d="M1364,-122.2222C1364,-140.8285 1364,-167 1364,-167 1364,-167 984.5055,-167 984.5055,-167"/>
<polygon fill="#000000" stroke="#000000" points="984.5056,-163.5001 974.5055,-167 984.5055,-170.5001 984.5056,-163.5001"/>
</g>
<!-- HeaderComponent -->
<g id="node5" class="node">
<title>HeaderComponent</title>
<polygon fill="#ffffb3" stroke="#000000" points="1286.7437,-122 1165.2563,-122 1165.2563,-86 1286.7437,-86 1286.7437,-122"/>
<text text-anchor="middle" x="1226" y="-99.8" font-family="Times,serif" font-size="14.00" fill="#000000">HeaderComponent</text>
</g>
<!-- HeaderComponent&#45;&gt;AdminModule -->
<g id="edge5" class="edge">
<title>HeaderComponent&#45;&gt;AdminModule</title>
<path fill="none" stroke="#000000" d="M1226,-122.0336C1226,-139.0597 1226,-162 1226,-162 1226,-162 984.367,-162 984.367,-162"/>
<polygon fill="#000000" stroke="#000000" points="984.367,-158.5001 974.367,-162 984.3669,-165.5001 984.367,-158.5001"/>
</g>
<!-- ProfileInfoComponent -->
<g id="node6" class="node">
<title>ProfileInfoComponent</title>
<polygon fill="#ffffb3" stroke="#000000" points="1147.2534,-122 1004.7466,-122 1004.7466,-86 1147.2534,-86 1147.2534,-122"/>
<text text-anchor="middle" x="1076" y="-99.8" font-family="Times,serif" font-size="14.00" fill="#000000">ProfileInfoComponent</text>
</g>
<!-- ProfileInfoComponent&#45;&gt;AdminModule -->
<g id="edge6" class="edge">
<title>ProfileInfoComponent&#45;&gt;AdminModule</title>
<path fill="none" stroke="#000000" d="M1076,-122.2396C1076,-137.5706 1076,-157 1076,-157 1076,-157 984.443,-157 984.443,-157"/>
<polygon fill="#000000" stroke="#000000" points="984.4431,-153.5001 974.443,-157 984.443,-160.5001 984.4431,-153.5001"/>
</g>
<!-- SidebarComponent -->
<g id="node7" class="node">
<title>SidebarComponent</title>
<polygon fill="#ffffb3" stroke="#000000" points="987.0954,-122 862.9046,-122 862.9046,-86 987.0954,-86 987.0954,-122"/>
<text text-anchor="middle" x="925" y="-99.8" font-family="Times,serif" font-size="14.00" fill="#000000">SidebarComponent</text>
</g>
<!-- SidebarComponent&#45;&gt;AdminModule -->
<g id="edge7" class="edge">
<title>SidebarComponent&#45;&gt;AdminModule</title>
<path fill="none" stroke="#000000" d="M925,-122.1061C925,-122.1061 925,-140.991 925,-140.991"/>
<polygon fill="#000000" stroke="#000000" points="921.5001,-140.9909 925,-150.991 928.5001,-140.991 921.5001,-140.9909"/>
</g>
<!-- StudentComponent -->
<g id="node8" class="node">
<title>StudentComponent</title>
<polygon fill="#ffffb3" stroke="#000000" points="845.1108,-122 720.8892,-122 720.8892,-86 845.1108,-86 845.1108,-122"/>
<text text-anchor="middle" x="783" y="-99.8" font-family="Times,serif" font-size="14.00" fill="#000000">StudentComponent</text>
</g>
<!-- StudentComponent&#45;&gt;AdminModule -->
<g id="edge8" class="edge">
<title>StudentComponent&#45;&gt;AdminModule</title>
<path fill="none" stroke="#000000" d="M783,-122.2396C783,-137.5706 783,-157 783,-157 783,-157 865.7338,-157 865.7338,-157"/>
<polygon fill="#000000" stroke="#000000" points="865.7338,-160.5001 875.7338,-157 865.7338,-153.5001 865.7338,-160.5001"/>
</g>
<!-- StudentsComponent -->
<g id="node9" class="node">
<title>StudentsComponent</title>
<polygon fill="#ffffb3" stroke="#000000" points="702.5562,-122 573.4438,-122 573.4438,-86 702.5562,-86 702.5562,-122"/>
<text text-anchor="middle" x="638" y="-99.8" font-family="Times,serif" font-size="14.00" fill="#000000">StudentsComponent</text>
</g>
<!-- StudentsComponent&#45;&gt;AdminModule -->
<g id="edge9" class="edge">
<title>StudentsComponent&#45;&gt;AdminModule</title>
<path fill="none" stroke="#000000" d="M638,-122.0336C638,-139.0597 638,-162 638,-162 638,-162 865.6629,-162 865.6629,-162"/>
<polygon fill="#000000" stroke="#000000" points="865.663,-165.5001 875.6629,-162 865.6629,-158.5001 865.663,-165.5001"/>
</g>
<!-- UserComponent -->
<g id="node10" class="node">
<title>UserComponent</title>
<polygon fill="#ffffb3" stroke="#000000" points="554.7591,-122 447.2409,-122 447.2409,-86 554.7591,-86 554.7591,-122"/>
<text text-anchor="middle" x="501" y="-99.8" font-family="Times,serif" font-size="14.00" fill="#000000">UserComponent</text>
</g>
<!-- UserComponent&#45;&gt;AdminModule -->
<g id="edge10" class="edge">
<title>UserComponent&#45;&gt;AdminModule</title>
<path fill="none" stroke="#000000" d="M501,-122.2222C501,-140.8285 501,-167 501,-167 501,-167 865.532,-167 865.532,-167"/>
<polygon fill="#000000" stroke="#000000" points="865.532,-170.5001 875.532,-167 865.532,-163.5001 865.532,-170.5001"/>
</g>
<!-- UsersComponent -->
<g id="node11" class="node">
<title>UsersComponent</title>
<polygon fill="#ffffb3" stroke="#000000" points="429.7036,-122 316.2964,-122 316.2964,-86 429.7036,-86 429.7036,-122"/>
<text text-anchor="middle" x="373" y="-99.8" font-family="Times,serif" font-size="14.00" fill="#000000">UsersComponent</text>
</g>
<!-- UsersComponent&#45;&gt;AdminModule -->
<g id="edge11" class="edge">
<title>UsersComponent&#45;&gt;AdminModule</title>
<path fill="none" stroke="#000000" d="M373,-122.2228C373,-142.3652 373,-172 373,-172 373,-172 865.5279,-172 865.5279,-172"/>
<polygon fill="#000000" stroke="#000000" points="865.5279,-175.5001 875.5279,-172 865.5279,-168.5001 865.5279,-175.5001"/>
</g>
<!-- AdminRoutingModule -->
<g id="node13" class="node">
<title>AdminRoutingModule</title>
<polygon fill="#8dd3c7" stroke="#000000" points="291.5561,-122 288.5561,-126 267.5561,-126 264.5561,-122 148.4439,-122 148.4439,-86 291.5561,-86 291.5561,-122"/>
<text text-anchor="middle" x="220" y="-99.8" font-family="Times,serif" font-size="14.00" fill="#000000">AdminRoutingModule</text>
</g>
<!-- AdminRoutingModule&#45;&gt;AdminModule -->
<g id="edge12" class="edge">
<title>AdminRoutingModule&#45;&gt;AdminModule</title>
<path fill="none" stroke="#000000" d="M220,-122.0449C220,-143.6623 220,-177 220,-177 220,-177 865.706,-177 865.706,-177"/>
<polygon fill="#000000" stroke="#000000" points="865.706,-180.5001 875.706,-177 865.7059,-173.5001 865.706,-180.5001"/>
</g>
<!-- MaterialModule -->
<g id="node14" class="node">
<title>MaterialModule</title>
<polygon fill="#8dd3c7" stroke="#000000" points="130.4706,-122 127.4706,-126 106.4706,-126 103.4706,-122 23.5294,-122 23.5294,-86 130.4706,-86 130.4706,-122"/>
<text text-anchor="middle" x="77" y="-99.8" font-family="Times,serif" font-size="14.00" fill="#000000">MaterialModule</text>
</g>
<!-- MaterialModule&#45;&gt;AdminModule -->
<g id="edge13" class="edge">
<title>MaterialModule&#45;&gt;AdminModule</title>
<path fill="none" stroke="#000000" d="M77,-122.0908C77,-145.1328 77,-182 77,-182 77,-182 865.7426,-182 865.7426,-182"/>
<polygon fill="#000000" stroke="#000000" points="865.7426,-185.5001 875.7426,-182 865.7425,-178.5001 865.7426,-185.5001"/>
</g>
</g>
</svg>
