<?xml version="1.0" encoding="UTF-8" standalone="no"?>
<!DOCTYPE svg PUBLIC "-//W3C//DTD SVG 1.1//EN"
 "http://www.w3.org/Graphics/SVG/1.1/DTD/svg11.dtd">
<!-- Generated by graphviz version 2.40.1 (20161225.0304)
 -->
<!-- Title: dependencies Pages: 1 -->
<svg width="598pt" height="211pt"
 viewBox="0.00 0.00 598.00 211.00" xmlns="http://www.w3.org/2000/svg" xmlns:xlink="http://www.w3.org/1999/xlink">
<g id="graph0" class="graph" transform="scale(1 1) rotate(0) translate(4 207)">
<title>dependencies</title>
<polygon fill="#ffffff" stroke="transparent" points="-4,4 -4,-207 594,-207 594,4 -4,4"/>
<text text-anchor="start" x="274.0091" y="-42.4" font-family="sans-serif" font-weight="bold" font-size="14.00" fill="#000000">Legend</text>
<polygon fill="#ffffb3" stroke="transparent" points="61,-10 61,-30 81,-30 81,-10 61,-10"/>
<text text-anchor="start" x="84.629" y="-15.4" font-family="sans-serif" font-size="14.00" fill="#000000"> &#160;Declarations</text>
<polygon fill="#8dd3c7" stroke="transparent" points="174,-10 174,-30 194,-30 194,-10 174,-10"/>
<text text-anchor="start" x="197.7251" y="-15.4" font-family="sans-serif" font-size="14.00" fill="#000000"> &#160;Module</text>
<polygon fill="#80b1d3" stroke="transparent" points="260,-10 260,-30 280,-30 280,-10 260,-10"/>
<text text-anchor="start" x="283.7812" y="-15.4" font-family="sans-serif" font-size="14.00" fill="#000000"> &#160;Bootstrap</text>
<polygon fill="#fdb462" stroke="transparent" points="357,-10 357,-30 377,-30 377,-10 357,-10"/>
<text text-anchor="start" x="380.6732" y="-15.4" font-family="sans-serif" font-size="14.00" fill="#000000"> &#160;Providers</text>
<polygon fill="#fb8072" stroke="transparent" points="453,-10 453,-30 473,-30 473,-10 453,-10"/>
<text text-anchor="start" x="476.7258" y="-15.4" font-family="sans-serif" font-size="14.00" fill="#000000"> &#160;Exports</text>
<g id="clust1" class="cluster">
<title>cluster_DonorModule</title>
<polygon fill="none" stroke="#000000" stroke-dasharray="1,5" points="8,-70 8,-195 582,-195 582,-70 8,-70"/>
</g>
<g id="clust2" class="cluster">
<title>cluster_DonorModule_declarations</title>
<polygon fill="none" stroke="#000000" points="305,-78 305,-130 574,-130 574,-78 305,-78"/>
</g>
<g id="clust5" class="cluster">
<title>cluster_DonorModule_imports</title>
<polygon fill="none" stroke="#000000" points="16,-78 16,-130 297,-130 297,-78 16,-78"/>
</g>
<!-- DonorComponent -->
<g id="node1" class="node">
<title>DonorComponent</title>
<polygon fill="#ffffb3" stroke="#000000" points="565.5996,-122 448.4004,-122 448.4004,-86 565.5996,-86 565.5996,-122"/>
<text text-anchor="middle" x="507" y="-99.8" font-family="Times,serif" font-size="14.00" fill="#000000">DonorComponent</text>
</g>
<!-- DonorModule -->
<g id="node3" class="node">
<title>DonorModule</title>
<polygon fill="#8dd3c7" stroke="#000000" points="342.8175,-187 339.8175,-191 318.8175,-191 315.8175,-187 247.1825,-187 247.1825,-151 342.8175,-151 342.8175,-187"/>
<text text-anchor="middle" x="295" y="-164.8" font-family="Times,serif" font-size="14.00" fill="#000000">DonorModule</text>
</g>
<!-- DonorComponent&#45;&gt;DonorModule -->
<g id="edge1" class="edge">
<title>DonorComponent&#45;&gt;DonorModule</title>
<path fill="none" stroke="#000000" d="M507,-122.1061C507,-141.3391 507,-169 507,-169 507,-169 352.8413,-169 352.8413,-169"/>
<polygon fill="#000000" stroke="#000000" points="352.8413,-165.5001 342.8413,-169 352.8412,-172.5001 352.8413,-165.5001"/>
</g>
<!-- FooterComponent -->
<g id="node2" class="node">
<title>FooterComponent</title>
<polygon fill="#ffffb3" stroke="#000000" points="430.8809,-122 313.1191,-122 313.1191,-86 430.8809,-86 430.8809,-122"/>
<text text-anchor="middle" x="372" y="-99.8" font-family="Times,serif" font-size="14.00" fill="#000000">FooterComponent</text>
</g>
<!-- FooterComponent&#45;&gt;DonorModule -->
<g id="edge2" class="edge">
<title>FooterComponent&#45;&gt;DonorModule</title>
<path fill="none" stroke="#000000" d="M327.8591,-122.1061C327.8591,-122.1061 327.8591,-140.991 327.8591,-140.991"/>
<polygon fill="#000000" stroke="#000000" points="324.3591,-140.9909 327.8591,-150.991 331.3591,-140.991 324.3591,-140.9909"/>
</g>
<!-- DonorRoutingModule -->
<g id="node4" class="node">
<title>DonorRoutingModule</title>
<polygon fill="#8dd3c7" stroke="#000000" points="289.4355,-122 286.4355,-126 265.4355,-126 262.4355,-122 148.5645,-122 148.5645,-86 289.4355,-86 289.4355,-122"/>
<text text-anchor="middle" x="219" y="-99.8" font-family="Times,serif" font-size="14.00" fill="#000000">DonorRoutingModule</text>
</g>
<!-- DonorRoutingModule&#45;&gt;DonorModule -->
<g id="edge3" class="edge">
<title>DonorRoutingModule&#45;&gt;DonorModule</title>
<path fill="none" stroke="#000000" d="M268.2795,-122.1061C268.2795,-122.1061 268.2795,-140.991 268.2795,-140.991"/>
<polygon fill="#000000" stroke="#000000" points="264.7795,-140.9909 268.2795,-150.991 271.7795,-140.991 264.7795,-140.9909"/>
</g>
<!-- MaterialModule -->
<g id="node5" class="node">
<title>MaterialModule</title>
<polygon fill="#8dd3c7" stroke="#000000" points="130.4706,-122 127.4706,-126 106.4706,-126 103.4706,-122 23.5294,-122 23.5294,-86 130.4706,-86 130.4706,-122"/>
<text text-anchor="middle" x="77" y="-99.8" font-family="Times,serif" font-size="14.00" fill="#000000">MaterialModule</text>
</g>
<!-- MaterialModule&#45;&gt;DonorModule -->
<g id="edge4" class="edge">
<title>MaterialModule&#45;&gt;DonorModule</title>
<path fill="none" stroke="#000000" d="M77,-122.1061C77,-141.3391 77,-169 77,-169 77,-169 237.159,-169 237.159,-169"/>
<polygon fill="#000000" stroke="#000000" points="237.159,-172.5001 247.159,-169 237.1589,-165.5001 237.159,-172.5001"/>
</g>
</g>
</svg>
