<?xml version="1.0" encoding="UTF-8" standalone="no"?>
<!DOCTYPE svg PUBLIC "-//W3C//DTD SVG 1.1//EN"
 "http://www.w3.org/Graphics/SVG/1.1/DTD/svg11.dtd">
<!-- Generated by graphviz version 2.40.1 (20161225.0304)
 -->
<!-- Title: dependencies Pages: 1 -->
<svg width="2759pt" height="211pt"
 viewBox="0.00 0.00 2759.00 211.00" xmlns="http://www.w3.org/2000/svg" xmlns:xlink="http://www.w3.org/1999/xlink">
<g id="graph0" class="graph" transform="scale(1 1) rotate(0) translate(4 207)">
<title>dependencies</title>
<polygon fill="#ffffff" stroke="transparent" points="-4,4 -4,-207 2755,-207 2755,4 -4,4"/>
<text text-anchor="start" x="1354.5091" y="-42.4" font-family="sans-serif" font-weight="bold" font-size="14.00" fill="#000000">Legend</text>
<polygon fill="#ffffb3" stroke="transparent" points="1141.5,-10 1141.5,-30 1161.5,-30 1161.5,-10 1141.5,-10"/>
<text text-anchor="start" x="1165.129" y="-15.4" font-family="sans-serif" font-size="14.00" fill="#000000"> &#160;Declarations</text>
<polygon fill="#8dd3c7" stroke="transparent" points="1254.5,-10 1254.5,-30 1274.5,-30 1274.5,-10 1254.5,-10"/>
<text text-anchor="start" x="1278.2251" y="-15.4" font-family="sans-serif" font-size="14.00" fill="#000000"> &#160;Module</text>
<polygon fill="#80b1d3" stroke="transparent" points="1340.5,-10 1340.5,-30 1360.5,-30 1360.5,-10 1340.5,-10"/>
<text text-anchor="start" x="1364.2812" y="-15.4" font-family="sans-serif" font-size="14.00" fill="#000000"> &#160;Bootstrap</text>
<polygon fill="#fdb462" stroke="transparent" points="1437.5,-10 1437.5,-30 1457.5,-30 1457.5,-10 1437.5,-10"/>
<text text-anchor="start" x="1461.1732" y="-15.4" font-family="sans-serif" font-size="14.00" fill="#000000"> &#160;Providers</text>
<polygon fill="#fb8072" stroke="transparent" points="1533.5,-10 1533.5,-30 1553.5,-30 1553.5,-10 1533.5,-10"/>
<text text-anchor="start" x="1557.2258" y="-15.4" font-family="sans-serif" font-size="14.00" fill="#000000"> &#160;Exports</text>
<g id="clust1" class="cluster">
<title>cluster_BloodBankStaffModule</title>
<polygon fill="none" stroke="#000000" stroke-dasharray="1,5" points="8,-70 8,-195 2743,-195 2743,-70 8,-70"/>
</g>
<g id="clust2" class="cluster">
<title>cluster_BloodBankStaffModule_declarations</title>
<polygon fill="none" stroke="#000000" points="360,-78 360,-130 2735,-130 2735,-78 360,-78"/>
</g>
<g id="clust17" class="cluster">
<title>cluster_BloodBankStaffModule_imports</title>
<polygon fill="none" stroke="#000000" points="16,-78 16,-130 352,-130 352,-78 16,-78"/>
</g>
<!-- ActivityComponent -->
<g id="node1" class="node">
<title>ActivityComponent</title>
<polygon fill="#ffffb3" stroke="#000000" points="2726.7162,-122 2599.2838,-122 2599.2838,-86 2726.7162,-86 2726.7162,-122"/>
<text text-anchor="middle" x="2663" y="-99.8" font-family="Times,serif" font-size="14.00" fill="#000000">ActivityComponent</text>
</g>
<!-- BloodBankStaffModule -->
<g id="node15" class="node">
<title>BloodBankStaffModule</title>
<polygon fill="#8dd3c7" stroke="#000000" points="1419.0379,-187 1416.0379,-191 1395.0379,-191 1392.0379,-187 1268.9621,-187 1268.9621,-151 1419.0379,-151 1419.0379,-187"/>
<text text-anchor="middle" x="1344" y="-164.8" font-family="Times,serif" font-size="14.00" fill="#000000">BloodBankStaffModule</text>
</g>
<!-- ActivityComponent&#45;&gt;BloodBankStaffModule -->
<g id="edge1" class="edge">
<title>ActivityComponent&#45;&gt;BloodBankStaffModule</title>
<path fill="none" stroke="#000000" d="M2663,-122.3228C2663,-145.6602 2663,-183 2663,-183 2663,-183 1429.1728,-183 1429.1728,-183"/>
<polygon fill="#000000" stroke="#000000" points="1429.1729,-179.5001 1419.1728,-183 1429.1728,-186.5001 1429.1729,-179.5001"/>
</g>
<!-- ApprovedRequestsComponent -->
<g id="node2" class="node">
<title>ApprovedRequestsComponent</title>
<polygon fill="#ffffb3" stroke="#000000" points="2580.8599,-122 2393.1401,-122 2393.1401,-86 2580.8599,-86 2580.8599,-122"/>
<text text-anchor="middle" x="2487" y="-99.8" font-family="Times,serif" font-size="14.00" fill="#000000">ApprovedRequestsComponent</text>
</g>
<!-- ApprovedRequestsComponent&#45;&gt;BloodBankStaffModule -->
<g id="edge2" class="edge">
<title>ApprovedRequestsComponent&#45;&gt;BloodBankStaffModule</title>
<path fill="none" stroke="#000000" d="M2487,-122.2921C2487,-144.2057 2487,-178 2487,-178 2487,-178 1429.4375,-178 1429.4375,-178"/>
<polygon fill="#000000" stroke="#000000" points="1429.4375,-174.5001 1419.4375,-178 1429.4374,-181.5001 1429.4375,-174.5001"/>
</g>
<!-- BloodBankStaffComponent -->
<g id="node3" class="node">
<title>BloodBankStaffComponent</title>
<polygon fill="#ffffb3" stroke="#000000" points="2375.3201,-122 2202.6799,-122 2202.6799,-86 2375.3201,-86 2375.3201,-122"/>
<text text-anchor="middle" x="2289" y="-99.8" font-family="Times,serif" font-size="14.00" fill="#000000">BloodBankStaffComponent</text>
</g>
<!-- BloodBankStaffComponent&#45;&gt;BloodBankStaffModule -->
<g id="edge3" class="edge">
<title>BloodBankStaffComponent&#45;&gt;BloodBankStaffModule</title>
<path fill="none" stroke="#000000" d="M2289,-122.0267C2289,-142.7672 2289,-174 2289,-174 2289,-174 1429.3387,-174 1429.3387,-174"/>
<polygon fill="#000000" stroke="#000000" points="1429.3388,-170.5001 1419.3387,-174 1429.3387,-177.5001 1429.3388,-170.5001"/>
</g>
<!-- BloodProductComponent -->
<g id="node4" class="node">
<title>BloodProductComponent</title>
<polygon fill="#ffffb3" stroke="#000000" points="2184.608,-122 2025.392,-122 2025.392,-86 2184.608,-86 2184.608,-122"/>
<text text-anchor="middle" x="2105" y="-99.8" font-family="Times,serif" font-size="14.00" fill="#000000">BloodProductComponent</text>
</g>
<!-- BloodProductComponent&#45;&gt;BloodBankStaffModule -->
<g id="edge4" class="edge">
<title>BloodProductComponent&#45;&gt;BloodBankStaffModule</title>
<path fill="none" stroke="#000000" d="M2105,-122.1061C2105,-141.3391 2105,-169 2105,-169 2105,-169 1429.0503,-169 1429.0503,-169"/>
<polygon fill="#000000" stroke="#000000" points="1429.0503,-165.5001 1419.0503,-169 1429.0502,-172.5001 1429.0503,-165.5001"/>
</g>
<!-- BloodProductsComponent -->
<g id="node5" class="node">
<title>BloodProductsComponent</title>
<polygon fill="#ffffb3" stroke="#000000" points="2007.0532,-122 1842.9468,-122 1842.9468,-86 2007.0532,-86 2007.0532,-122"/>
<text text-anchor="middle" x="1925" y="-99.8" font-family="Times,serif" font-size="14.00" fill="#000000">BloodProductsComponent</text>
</g>
<!-- BloodProductsComponent&#45;&gt;BloodBankStaffModule -->
<g id="edge5" class="edge">
<title>BloodProductsComponent&#45;&gt;BloodBankStaffModule</title>
<path fill="none" stroke="#000000" d="M1925,-122.302C1925,-140.2699 1925,-165 1925,-165 1925,-165 1429.0628,-165 1429.0628,-165"/>
<polygon fill="#000000" stroke="#000000" points="1429.0629,-161.5001 1419.0628,-165 1429.0628,-168.5001 1429.0629,-161.5001"/>
</g>
<!-- DonorActivitesComponent -->
<g id="node6" class="node">
<title>DonorActivitesComponent</title>
<polygon fill="#ffffb3" stroke="#000000" points="1824.6428,-122 1657.3572,-122 1657.3572,-86 1824.6428,-86 1824.6428,-122"/>
<text text-anchor="middle" x="1741" y="-99.8" font-family="Times,serif" font-size="14.00" fill="#000000">DonorActivitesComponent</text>
</g>
<!-- DonorActivitesComponent&#45;&gt;BloodBankStaffModule -->
<g id="edge6" class="edge">
<title>DonorActivitesComponent&#45;&gt;BloodBankStaffModule</title>
<path fill="none" stroke="#000000" d="M1741,-122.027C1741,-138.3976 1741,-160 1741,-160 1741,-160 1429.1394,-160 1429.1394,-160"/>
<polygon fill="#000000" stroke="#000000" points="1429.1394,-156.5001 1419.1394,-160 1429.1394,-163.5001 1429.1394,-156.5001"/>
</g>
<!-- DonorInfoComponent -->
<g id="node7" class="node">
<title>DonorInfoComponent</title>
<polygon fill="#ffffb3" stroke="#000000" points="1639.4214,-122 1498.5786,-122 1498.5786,-86 1639.4214,-86 1639.4214,-122"/>
<text text-anchor="middle" x="1569" y="-99.8" font-family="Times,serif" font-size="14.00" fill="#000000">DonorInfoComponent</text>
</g>
<!-- DonorInfoComponent&#45;&gt;BloodBankStaffModule -->
<g id="edge7" class="edge">
<title>DonorInfoComponent&#45;&gt;BloodBankStaffModule</title>
<path fill="none" stroke="#000000" d="M1569,-122.1871C1569,-137.1824 1569,-156 1569,-156 1569,-156 1429.2346,-156 1429.2346,-156"/>
<polygon fill="#000000" stroke="#000000" points="1429.2346,-152.5001 1419.2346,-156 1429.2345,-159.5001 1429.2346,-152.5001"/>
</g>
<!-- DonorsComponent -->
<g id="node8" class="node">
<title>DonorsComponent</title>
<polygon fill="#ffffb3" stroke="#000000" points="1481.045,-122 1358.955,-122 1358.955,-86 1481.045,-86 1481.045,-122"/>
<text text-anchor="middle" x="1420" y="-99.8" font-family="Times,serif" font-size="14.00" fill="#000000">DonorsComponent</text>
</g>
<!-- DonorsComponent&#45;&gt;BloodBankStaffModule -->
<g id="edge8" class="edge">
<title>DonorsComponent&#45;&gt;BloodBankStaffModule</title>
<path fill="none" stroke="#000000" d="M1388.9983,-122.1061C1388.9983,-122.1061 1388.9983,-140.991 1388.9983,-140.991"/>
<polygon fill="#000000" stroke="#000000" points="1385.4983,-140.9909 1388.9983,-150.991 1392.4983,-140.991 1385.4983,-140.9909"/>
</g>
<!-- EditProfileComponent -->
<g id="node9" class="node">
<title>EditProfileComponent</title>
<polygon fill="#ffffb3" stroke="#000000" points="1340.266,-122 1197.734,-122 1197.734,-86 1340.266,-86 1340.266,-122"/>
<text text-anchor="middle" x="1269" y="-99.8" font-family="Times,serif" font-size="14.00" fill="#000000">EditProfileComponent</text>
</g>
<!-- EditProfileComponent&#45;&gt;BloodBankStaffModule -->
<g id="edge9" class="edge">
<title>EditProfileComponent&#45;&gt;BloodBankStaffModule</title>
<path fill="none" stroke="#000000" d="M1304.5572,-122.1061C1304.5572,-122.1061 1304.5572,-140.991 1304.5572,-140.991"/>
<polygon fill="#000000" stroke="#000000" points="1301.0572,-140.9909 1304.5572,-150.991 1308.0572,-140.991 1301.0572,-140.9909"/>
</g>
<!-- ExpiredProductsComponent -->
<g id="node10" class="node">
<title>ExpiredProductsComponent</title>
<polygon fill="#ffffb3" stroke="#000000" points="1179.1442,-122 1004.8558,-122 1004.8558,-86 1179.1442,-86 1179.1442,-122"/>
<text text-anchor="middle" x="1092" y="-99.8" font-family="Times,serif" font-size="14.00" fill="#000000">ExpiredProductsComponent</text>
</g>
<!-- ExpiredProductsComponent&#45;&gt;BloodBankStaffModule -->
<g id="edge10" class="edge">
<title>ExpiredProductsComponent&#45;&gt;BloodBankStaffModule</title>
<path fill="none" stroke="#000000" d="M1092,-122.1871C1092,-137.1824 1092,-156 1092,-156 1092,-156 1258.733,-156 1258.733,-156"/>
<polygon fill="#000000" stroke="#000000" points="1258.7331,-159.5001 1268.733,-156 1258.733,-152.5001 1258.7331,-159.5001"/>
</g>
<!-- FooterComponent -->
<g id="node11" class="node">
<title>FooterComponent</title>
<polygon fill="#ffffb3" stroke="#000000" points="986.8809,-122 869.1191,-122 869.1191,-86 986.8809,-86 986.8809,-122"/>
<text text-anchor="middle" x="928" y="-99.8" font-family="Times,serif" font-size="14.00" fill="#000000">FooterComponent</text>
</g>
<!-- FooterComponent&#45;&gt;BloodBankStaffModule -->
<g id="edge11" class="edge">
<title>FooterComponent&#45;&gt;BloodBankStaffModule</title>
<path fill="none" stroke="#000000" d="M928,-122.027C928,-138.3976 928,-160 928,-160 928,-160 1258.6655,-160 1258.6655,-160"/>
<polygon fill="#000000" stroke="#000000" points="1258.6656,-163.5001 1268.6655,-160 1258.6655,-156.5001 1258.6656,-163.5001"/>
</g>
<!-- HandleRequestComponent -->
<g id="node12" class="node">
<title>HandleRequestComponent</title>
<polygon fill="#ffffb3" stroke="#000000" points="851.3599,-122 684.6401,-122 684.6401,-86 851.3599,-86 851.3599,-122"/>
<text text-anchor="middle" x="768" y="-99.8" font-family="Times,serif" font-size="14.00" fill="#000000">HandleRequestComponent</text>
</g>
<!-- HandleRequestComponent&#45;&gt;BloodBankStaffModule -->
<g id="edge12" class="edge">
<title>HandleRequestComponent&#45;&gt;BloodBankStaffModule</title>
<path fill="none" stroke="#000000" d="M768,-122.302C768,-140.2699 768,-165 768,-165 768,-165 1258.6981,-165 1258.6981,-165"/>
<polygon fill="#000000" stroke="#000000" points="1258.6981,-168.5001 1268.6981,-165 1258.698,-161.5001 1258.6981,-168.5001"/>
</g>
<!-- ProductInfoComponent -->
<g id="node13" class="node">
<title>ProductInfoComponent</title>
<polygon fill="#ffffb3" stroke="#000000" points="666.2021,-122 517.7979,-122 517.7979,-86 666.2021,-86 666.2021,-122"/>
<text text-anchor="middle" x="592" y="-99.8" font-family="Times,serif" font-size="14.00" fill="#000000">ProductInfoComponent</text>
</g>
<!-- ProductInfoComponent&#45;&gt;BloodBankStaffModule -->
<g id="edge13" class="edge">
<title>ProductInfoComponent&#45;&gt;BloodBankStaffModule</title>
<path fill="none" stroke="#000000" d="M592,-122.1061C592,-141.3391 592,-169 592,-169 592,-169 1258.7995,-169 1258.7995,-169"/>
<polygon fill="#000000" stroke="#000000" points="1258.7996,-172.5001 1268.7995,-169 1258.7995,-165.5001 1258.7996,-172.5001"/>
</g>
<!-- RequestsComponent -->
<g id="node14" class="node">
<title>RequestsComponent</title>
<polygon fill="#ffffb3" stroke="#000000" points="499.8781,-122 368.1219,-122 368.1219,-86 499.8781,-86 499.8781,-122"/>
<text text-anchor="middle" x="434" y="-99.8" font-family="Times,serif" font-size="14.00" fill="#000000">RequestsComponent</text>
</g>
<!-- RequestsComponent&#45;&gt;BloodBankStaffModule -->
<g id="edge14" class="edge">
<title>RequestsComponent&#45;&gt;BloodBankStaffModule</title>
<path fill="none" stroke="#000000" d="M434,-122.0267C434,-142.7672 434,-174 434,-174 434,-174 1258.7567,-174 1258.7567,-174"/>
<polygon fill="#000000" stroke="#000000" points="1258.7567,-177.5001 1268.7567,-174 1258.7566,-170.5001 1258.7567,-177.5001"/>
</g>
<!-- BloodBankStaffRoutingModule -->
<g id="node16" class="node">
<title>BloodBankStaffRoutingModule</title>
<polygon fill="#8dd3c7" stroke="#000000" points="343.6553,-122 340.6553,-126 319.6553,-126 316.6553,-122 148.3447,-122 148.3447,-86 343.6553,-86 343.6553,-122"/>
<text text-anchor="middle" x="246" y="-99.8" font-family="Times,serif" font-size="14.00" fill="#000000">BloodBankStaffRoutingModule</text>
</g>
<!-- BloodBankStaffRoutingModule&#45;&gt;BloodBankStaffModule -->
<g id="edge15" class="edge">
<title>BloodBankStaffRoutingModule&#45;&gt;BloodBankStaffModule</title>
<path fill="none" stroke="#000000" d="M246,-122.2921C246,-144.2057 246,-178 246,-178 246,-178 1258.53,-178 1258.53,-178"/>
<polygon fill="#000000" stroke="#000000" points="1258.53,-181.5001 1268.53,-178 1258.53,-174.5001 1258.53,-181.5001"/>
</g>
<!-- MaterialModule -->
<g id="node17" class="node">
<title>MaterialModule</title>
<polygon fill="#8dd3c7" stroke="#000000" points="130.4706,-122 127.4706,-126 106.4706,-126 103.4706,-122 23.5294,-122 23.5294,-86 130.4706,-86 130.4706,-122"/>
<text text-anchor="middle" x="77" y="-99.8" font-family="Times,serif" font-size="14.00" fill="#000000">MaterialModule</text>
</g>
<!-- MaterialModule&#45;&gt;BloodBankStaffModule -->
<g id="edge16" class="edge">
<title>MaterialModule&#45;&gt;BloodBankStaffModule</title>
<path fill="none" stroke="#000000" d="M77,-122.3228C77,-145.6602 77,-183 77,-183 77,-183 1258.5377,-183 1258.5377,-183"/>
<polygon fill="#000000" stroke="#000000" points="1258.5377,-186.5001 1268.5377,-183 1258.5377,-179.5001 1258.5377,-186.5001"/>
</g>
</g>
</svg>
