<?xml version="1.0" encoding="UTF-8" standalone="no"?>
<!DOCTYPE svg PUBLIC "-//W3C//DTD SVG 1.1//EN"
 "http://www.w3.org/Graphics/SVG/1.1/DTD/svg11.dtd">
<!-- Generated by graphviz version 2.40.1 (20161225.0304)
 -->
<!-- Title: dependencies Pages: 1 -->
<svg width="2726pt" height="211pt"
 viewBox="0.00 0.00 2726.00 211.00" xmlns="http://www.w3.org/2000/svg" xmlns:xlink="http://www.w3.org/1999/xlink">
<g id="graph0" class="graph" transform="scale(1 1) rotate(0) translate(4 207)">
<title>dependencies</title>
<polygon fill="#ffffff" stroke="transparent" points="-4,4 -4,-207 2722,-207 2722,4 -4,4"/>
<text text-anchor="start" x="1338.0091" y="-42.4" font-family="sans-serif" font-weight="bold" font-size="14.00" fill="#000000">Legend</text>
<polygon fill="#ffffb3" stroke="transparent" points="1125,-10 1125,-30 1145,-30 1145,-10 1125,-10"/>
<text text-anchor="start" x="1148.629" y="-15.4" font-family="sans-serif" font-size="14.00" fill="#000000"> &#160;Declarations</text>
<polygon fill="#8dd3c7" stroke="transparent" points="1238,-10 1238,-30 1258,-30 1258,-10 1238,-10"/>
<text text-anchor="start" x="1261.7251" y="-15.4" font-family="sans-serif" font-size="14.00" fill="#000000"> &#160;Module</text>
<polygon fill="#80b1d3" stroke="transparent" points="1324,-10 1324,-30 1344,-30 1344,-10 1324,-10"/>
<text text-anchor="start" x="1347.7812" y="-15.4" font-family="sans-serif" font-size="14.00" fill="#000000"> &#160;Bootstrap</text>
<polygon fill="#fdb462" stroke="transparent" points="1421,-10 1421,-30 1441,-30 1441,-10 1421,-10"/>
<text text-anchor="start" x="1444.6732" y="-15.4" font-family="sans-serif" font-size="14.00" fill="#000000"> &#160;Providers</text>
<polygon fill="#fb8072" stroke="transparent" points="1517,-10 1517,-30 1537,-30 1537,-10 1517,-10"/>
<text text-anchor="start" x="1540.7258" y="-15.4" font-family="sans-serif" font-size="14.00" fill="#000000"> &#160;Exports</text>
<g id="clust1" class="cluster">
<title>cluster_BloodBankStaffModule</title>
<polygon fill="none" stroke="#000000" stroke-dasharray="1,5" points="8,-70 8,-195 2710,-195 2710,-70 8,-70"/>
</g>
<g id="clust2" class="cluster">
<title>cluster_BloodBankStaffModule_declarations</title>
<polygon fill="none" stroke="#000000" points="360,-78 360,-130 2702,-130 2702,-78 360,-78"/>
</g>
<g id="clust17" class="cluster">
<title>cluster_BloodBankStaffModule_imports</title>
<polygon fill="none" stroke="#000000" points="16,-78 16,-130 352,-130 352,-78 16,-78"/>
</g>
<!-- ActivityComponent -->
<g id="node1" class="node">
<title>ActivityComponent</title>
<polygon fill="#ffffb3" stroke="#000000" points="2693.7162,-122 2566.2838,-122 2566.2838,-86 2693.7162,-86 2693.7162,-122"/>
<text text-anchor="middle" x="2630" y="-99.8" font-family="Times,serif" font-size="14.00" fill="#000000">ActivityComponent</text>
</g>
<!-- BloodBankStaffModule -->
<g id="node15" class="node">
<title>BloodBankStaffModule</title>
<polygon fill="#8dd3c7" stroke="#000000" points="1376.0379,-187 1373.0379,-191 1352.0379,-191 1349.0379,-187 1225.9621,-187 1225.9621,-151 1376.0379,-151 1376.0379,-187"/>
<text text-anchor="middle" x="1301" y="-164.8" font-family="Times,serif" font-size="14.00" fill="#000000">BloodBankStaffModule</text>
</g>
<!-- ActivityComponent&#45;&gt;BloodBankStaffModule -->
<g id="edge1" class="edge">
<title>ActivityComponent&#45;&gt;BloodBankStaffModule</title>
<path fill="none" stroke="#000000" d="M2630,-122.3228C2630,-145.6602 2630,-183 2630,-183 2630,-183 1386.2607,-183 1386.2607,-183"/>
<polygon fill="#000000" stroke="#000000" points="1386.2607,-179.5001 1376.2607,-183 1386.2606,-186.5001 1386.2607,-179.5001"/>
</g>
<!-- ApprovedRequestsComponent -->
<g id="node2" class="node">
<title>ApprovedRequestsComponent</title>
<polygon fill="#ffffb3" stroke="#000000" points="2547.8599,-122 2360.1401,-122 2360.1401,-86 2547.8599,-86 2547.8599,-122"/>
<text text-anchor="middle" x="2454" y="-99.8" font-family="Times,serif" font-size="14.00" fill="#000000">ApprovedRequestsComponent</text>
</g>
<!-- ApprovedRequestsComponent&#45;&gt;BloodBankStaffModule -->
<g id="edge2" class="edge">
<title>ApprovedRequestsComponent&#45;&gt;BloodBankStaffModule</title>
<path fill="none" stroke="#000000" d="M2454,-122.2921C2454,-144.2057 2454,-178 2454,-178 2454,-178 1386.2068,-178 1386.2068,-178"/>
<polygon fill="#000000" stroke="#000000" points="1386.2068,-174.5001 1376.2068,-178 1386.2068,-181.5001 1386.2068,-174.5001"/>
</g>
<!-- BloodBankStaffComponent -->
<g id="node3" class="node">
<title>BloodBankStaffComponent</title>
<polygon fill="#ffffb3" stroke="#000000" points="2342.3201,-122 2169.6799,-122 2169.6799,-86 2342.3201,-86 2342.3201,-122"/>
<text text-anchor="middle" x="2256" y="-99.8" font-family="Times,serif" font-size="14.00" fill="#000000">BloodBankStaffComponent</text>
</g>
<!-- BloodBankStaffComponent&#45;&gt;BloodBankStaffModule -->
<g id="edge3" class="edge">
<title>BloodBankStaffComponent&#45;&gt;BloodBankStaffModule</title>
<path fill="none" stroke="#000000" d="M2256,-122.0267C2256,-142.7672 2256,-174 2256,-174 2256,-174 1386.3359,-174 1386.3359,-174"/>
<polygon fill="#000000" stroke="#000000" points="1386.336,-170.5001 1376.3359,-174 1386.3359,-177.5001 1386.336,-170.5001"/>
</g>
<!-- BloodProductComponent -->
<g id="node4" class="node">
<title>BloodProductComponent</title>
<polygon fill="#ffffb3" stroke="#000000" points="2151.608,-122 1992.392,-122 1992.392,-86 2151.608,-86 2151.608,-122"/>
<text text-anchor="middle" x="2072" y="-99.8" font-family="Times,serif" font-size="14.00" fill="#000000">BloodProductComponent</text>
</g>
<!-- BloodProductComponent&#45;&gt;BloodBankStaffModule -->
<g id="edge4" class="edge">
<title>BloodProductComponent&#45;&gt;BloodBankStaffModule</title>
<path fill="none" stroke="#000000" d="M2072,-122.1061C2072,-141.3391 2072,-169 2072,-169 2072,-169 1386.3305,-169 1386.3305,-169"/>
<polygon fill="#000000" stroke="#000000" points="1386.3306,-165.5001 1376.3305,-169 1386.3305,-172.5001 1386.3306,-165.5001"/>
</g>
<!-- BloodProductsComponent -->
<g id="node5" class="node">
<title>BloodProductsComponent</title>
<polygon fill="#ffffb3" stroke="#000000" points="1974.0532,-122 1809.9468,-122 1809.9468,-86 1974.0532,-86 1974.0532,-122"/>
<text text-anchor="middle" x="1892" y="-99.8" font-family="Times,serif" font-size="14.00" fill="#000000">BloodProductsComponent</text>
</g>
<!-- BloodProductsComponent&#45;&gt;BloodBankStaffModule -->
<g id="edge5" class="edge">
<title>BloodProductsComponent&#45;&gt;BloodBankStaffModule</title>
<path fill="none" stroke="#000000" d="M1892,-122.302C1892,-140.2699 1892,-165 1892,-165 1892,-165 1386.1505,-165 1386.1505,-165"/>
<polygon fill="#000000" stroke="#000000" points="1386.1505,-161.5001 1376.1505,-165 1386.1504,-168.5001 1386.1505,-161.5001"/>
</g>
<!-- DashboardComponent -->
<g id="node6" class="node">
<title>DashboardComponent</title>
<polygon fill="#ffffb3" stroke="#000000" points="1791.9734,-122 1650.0266,-122 1650.0266,-86 1791.9734,-86 1791.9734,-122"/>
<text text-anchor="middle" x="1721" y="-99.8" font-family="Times,serif" font-size="14.00" fill="#000000">DashboardComponent</text>
</g>
<!-- DashboardComponent&#45;&gt;BloodBankStaffModule -->
<g id="edge6" class="edge">
<title>DashboardComponent&#45;&gt;BloodBankStaffModule</title>
<path fill="none" stroke="#000000" d="M1721,-122.027C1721,-138.3976 1721,-160 1721,-160 1721,-160 1386.0876,-160 1386.0876,-160"/>
<polygon fill="#000000" stroke="#000000" points="1386.0876,-156.5001 1376.0876,-160 1386.0875,-163.5001 1386.0876,-156.5001"/>
</g>
<!-- DonorActivitesComponent -->
<g id="node7" class="node">
<title>DonorActivitesComponent</title>
<polygon fill="#ffffb3" stroke="#000000" points="1631.6428,-122 1464.3572,-122 1464.3572,-86 1631.6428,-86 1631.6428,-122"/>
<text text-anchor="middle" x="1548" y="-99.8" font-family="Times,serif" font-size="14.00" fill="#000000">DonorActivitesComponent</text>
</g>
<!-- DonorActivitesComponent&#45;&gt;BloodBankStaffModule -->
<g id="edge7" class="edge">
<title>DonorActivitesComponent&#45;&gt;BloodBankStaffModule</title>
<path fill="none" stroke="#000000" d="M1548,-122.1871C1548,-137.1824 1548,-156 1548,-156 1548,-156 1386.1142,-156 1386.1142,-156"/>
<polygon fill="#000000" stroke="#000000" points="1386.1142,-152.5001 1376.1142,-156 1386.1141,-159.5001 1386.1142,-152.5001"/>
</g>
<!-- DonorInfoComponent -->
<g id="node8" class="node">
<title>DonorInfoComponent</title>
<polygon fill="#ffffb3" stroke="#000000" points="1446.4214,-122 1305.5786,-122 1305.5786,-86 1446.4214,-86 1446.4214,-122"/>
<text text-anchor="middle" x="1376" y="-99.8" font-family="Times,serif" font-size="14.00" fill="#000000">DonorInfoComponent</text>
</g>
<!-- DonorInfoComponent&#45;&gt;BloodBankStaffModule -->
<g id="edge8" class="edge">
<title>DonorInfoComponent&#45;&gt;BloodBankStaffModule</title>
<path fill="none" stroke="#000000" d="M1341.0291,-122.1061C1341.0291,-122.1061 1341.0291,-140.991 1341.0291,-140.991"/>
<polygon fill="#000000" stroke="#000000" points="1337.5292,-140.9909 1341.0291,-150.991 1344.5292,-140.991 1337.5292,-140.9909"/>
</g>
<!-- DonorsComponent -->
<g id="node9" class="node">
<title>DonorsComponent</title>
<polygon fill="#ffffb3" stroke="#000000" points="1288.045,-122 1165.955,-122 1165.955,-86 1288.045,-86 1288.045,-122"/>
<text text-anchor="middle" x="1227" y="-99.8" font-family="Times,serif" font-size="14.00" fill="#000000">DonorsComponent</text>
</g>
<!-- DonorsComponent&#45;&gt;BloodBankStaffModule -->
<g id="edge9" class="edge">
<title>DonorsComponent&#45;&gt;BloodBankStaffModule</title>
<path fill="none" stroke="#000000" d="M1257.0017,-122.1061C1257.0017,-122.1061 1257.0017,-140.991 1257.0017,-140.991"/>
<polygon fill="#000000" stroke="#000000" points="1253.5018,-140.9909 1257.0017,-150.991 1260.5018,-140.991 1253.5018,-140.9909"/>
</g>
<!-- EditProfileComponent -->
<g id="node10" class="node">
<title>EditProfileComponent</title>
<polygon fill="#ffffb3" stroke="#000000" points="1147.266,-122 1004.734,-122 1004.734,-86 1147.266,-86 1147.266,-122"/>
<text text-anchor="middle" x="1076" y="-99.8" font-family="Times,serif" font-size="14.00" fill="#000000">EditProfileComponent</text>
</g>
<!-- EditProfileComponent&#45;&gt;BloodBankStaffModule -->
<g id="edge10" class="edge">
<title>EditProfileComponent&#45;&gt;BloodBankStaffModule</title>
<path fill="none" stroke="#000000" d="M1076,-122.1871C1076,-137.1824 1076,-156 1076,-156 1076,-156 1215.7654,-156 1215.7654,-156"/>
<polygon fill="#000000" stroke="#000000" points="1215.7655,-159.5001 1225.7654,-156 1215.7654,-152.5001 1215.7655,-159.5001"/>
</g>
<!-- FooterComponent -->
<g id="node11" class="node">
<title>FooterComponent</title>
<polygon fill="#ffffb3" stroke="#000000" points="986.8809,-122 869.1191,-122 869.1191,-86 986.8809,-86 986.8809,-122"/>
<text text-anchor="middle" x="928" y="-99.8" font-family="Times,serif" font-size="14.00" fill="#000000">FooterComponent</text>
</g>
<!-- FooterComponent&#45;&gt;BloodBankStaffModule -->
<g id="edge11" class="edge">
<title>FooterComponent&#45;&gt;BloodBankStaffModule</title>
<path fill="none" stroke="#000000" d="M928,-122.027C928,-138.3976 928,-160 928,-160 928,-160 1215.5179,-160 1215.5179,-160"/>
<polygon fill="#000000" stroke="#000000" points="1215.5179,-163.5001 1225.5179,-160 1215.5178,-156.5001 1215.5179,-163.5001"/>
</g>
<!-- HandleRequestComponent -->
<g id="node12" class="node">
<title>HandleRequestComponent</title>
<polygon fill="#ffffb3" stroke="#000000" points="851.3599,-122 684.6401,-122 684.6401,-86 851.3599,-86 851.3599,-122"/>
<text text-anchor="middle" x="768" y="-99.8" font-family="Times,serif" font-size="14.00" fill="#000000">HandleRequestComponent</text>
</g>
<!-- HandleRequestComponent&#45;&gt;BloodBankStaffModule -->
<g id="edge12" class="edge">
<title>HandleRequestComponent&#45;&gt;BloodBankStaffModule</title>
<path fill="none" stroke="#000000" d="M768,-122.302C768,-140.2699 768,-165 768,-165 768,-165 1215.7646,-165 1215.7646,-165"/>
<polygon fill="#000000" stroke="#000000" points="1215.7646,-168.5001 1225.7646,-165 1215.7645,-161.5001 1215.7646,-168.5001"/>
</g>
<!-- ProductInfoComponent -->
<g id="node13" class="node">
<title>ProductInfoComponent</title>
<polygon fill="#ffffb3" stroke="#000000" points="666.2021,-122 517.7979,-122 517.7979,-86 666.2021,-86 666.2021,-122"/>
<text text-anchor="middle" x="592" y="-99.8" font-family="Times,serif" font-size="14.00" fill="#000000">ProductInfoComponent</text>
</g>
<!-- ProductInfoComponent&#45;&gt;BloodBankStaffModule -->
<g id="edge13" class="edge">
<title>ProductInfoComponent&#45;&gt;BloodBankStaffModule</title>
<path fill="none" stroke="#000000" d="M592,-122.1061C592,-141.3391 592,-169 592,-169 592,-169 1215.7958,-169 1215.7958,-169"/>
<polygon fill="#000000" stroke="#000000" points="1215.7958,-172.5001 1225.7958,-169 1215.7958,-165.5001 1215.7958,-172.5001"/>
</g>
<!-- RequestsComponent -->
<g id="node14" class="node">
<title>RequestsComponent</title>
<polygon fill="#ffffb3" stroke="#000000" points="499.8781,-122 368.1219,-122 368.1219,-86 499.8781,-86 499.8781,-122"/>
<text text-anchor="middle" x="434" y="-99.8" font-family="Times,serif" font-size="14.00" fill="#000000">RequestsComponent</text>
</g>
<!-- RequestsComponent&#45;&gt;BloodBankStaffModule -->
<g id="edge14" class="edge">
<title>RequestsComponent&#45;&gt;BloodBankStaffModule</title>
<path fill="none" stroke="#000000" d="M434,-122.0267C434,-142.7672 434,-174 434,-174 434,-174 1215.9533,-174 1215.9533,-174"/>
<polygon fill="#000000" stroke="#000000" points="1215.9533,-177.5001 1225.9533,-174 1215.9533,-170.5001 1215.9533,-177.5001"/>
</g>
<!-- BloodBankStaffRoutingModule -->
<g id="node16" class="node">
<title>BloodBankStaffRoutingModule</title>
<polygon fill="#8dd3c7" stroke="#000000" points="343.6553,-122 340.6553,-126 319.6553,-126 316.6553,-122 148.3447,-122 148.3447,-86 343.6553,-86 343.6553,-122"/>
<text text-anchor="middle" x="246" y="-99.8" font-family="Times,serif" font-size="14.00" fill="#000000">BloodBankStaffRoutingModule</text>
</g>
<!-- BloodBankStaffRoutingModule&#45;&gt;BloodBankStaffModule -->
<g id="edge15" class="edge">
<title>BloodBankStaffRoutingModule&#45;&gt;BloodBankStaffModule</title>
<path fill="none" stroke="#000000" d="M246,-122.2921C246,-144.2057 246,-178 246,-178 246,-178 1215.5504,-178 1215.5504,-178"/>
<polygon fill="#000000" stroke="#000000" points="1215.5504,-181.5001 1225.5504,-178 1215.5504,-174.5001 1215.5504,-181.5001"/>
</g>
<!-- MaterialModule -->
<g id="node17" class="node">
<title>MaterialModule</title>
<polygon fill="#8dd3c7" stroke="#000000" points="130.4706,-122 127.4706,-126 106.4706,-126 103.4706,-122 23.5294,-122 23.5294,-86 130.4706,-86 130.4706,-122"/>
<text text-anchor="middle" x="77" y="-99.8" font-family="Times,serif" font-size="14.00" fill="#000000">MaterialModule</text>
</g>
<!-- MaterialModule&#45;&gt;BloodBankStaffModule -->
<g id="edge16" class="edge">
<title>MaterialModule&#45;&gt;BloodBankStaffModule</title>
<path fill="none" stroke="#000000" d="M77,-122.3228C77,-145.6602 77,-183 77,-183 77,-183 1215.817,-183 1215.817,-183"/>
<polygon fill="#000000" stroke="#000000" points="1215.8171,-186.5001 1225.817,-183 1215.817,-179.5001 1215.8171,-186.5001"/>
</g>
</g>
</svg>
