<?xml version="1.0" encoding="UTF-8" standalone="no"?>
<!DOCTYPE svg PUBLIC "-//W3C//DTD SVG 1.1//EN"
 "http://www.w3.org/Graphics/SVG/1.1/DTD/svg11.dtd">
<!-- Generated by graphviz version 2.40.1 (20161225.0304)
 -->
<!-- Title: dependencies Pages: 1 -->
<svg width="1330pt" height="211pt"
 viewBox="0.00 0.00 1330.00 211.00" xmlns="http://www.w3.org/2000/svg" xmlns:xlink="http://www.w3.org/1999/xlink">
<g id="graph0" class="graph" transform="scale(1 1) rotate(0) translate(4 207)">
<title>dependencies</title>
<polygon fill="#ffffff" stroke="transparent" points="-4,4 -4,-207 1326,-207 1326,4 -4,4"/>
<text text-anchor="start" x="640.0091" y="-42.4" font-family="sans-serif" font-weight="bold" font-size="14.00" fill="#000000">Legend</text>
<polygon fill="#ffffb3" stroke="transparent" points="427,-10 427,-30 447,-30 447,-10 427,-10"/>
<text text-anchor="start" x="450.629" y="-15.4" font-family="sans-serif" font-size="14.00" fill="#000000"> &#160;Declarations</text>
<polygon fill="#8dd3c7" stroke="transparent" points="540,-10 540,-30 560,-30 560,-10 540,-10"/>
<text text-anchor="start" x="563.7251" y="-15.4" font-family="sans-serif" font-size="14.00" fill="#000000"> &#160;Module</text>
<polygon fill="#80b1d3" stroke="transparent" points="626,-10 626,-30 646,-30 646,-10 626,-10"/>
<text text-anchor="start" x="649.7812" y="-15.4" font-family="sans-serif" font-size="14.00" fill="#000000"> &#160;Bootstrap</text>
<polygon fill="#fdb462" stroke="transparent" points="723,-10 723,-30 743,-30 743,-10 723,-10"/>
<text text-anchor="start" x="746.6732" y="-15.4" font-family="sans-serif" font-size="14.00" fill="#000000"> &#160;Providers</text>
<polygon fill="#fb8072" stroke="transparent" points="819,-10 819,-30 839,-30 839,-10 819,-10"/>
<text text-anchor="start" x="842.7258" y="-15.4" font-family="sans-serif" font-size="14.00" fill="#000000"> &#160;Exports</text>
<g id="clust1" class="cluster">
<title>cluster_DoctorModule</title>
<polygon fill="none" stroke="#000000" stroke-dasharray="1,5" points="8,-70 8,-195 1314,-195 1314,-70 8,-70"/>
</g>
<g id="clust2" class="cluster">
<title>cluster_DoctorModule_declarations</title>
<polygon fill="none" stroke="#000000" points="308,-78 308,-130 1306,-130 1306,-78 308,-78"/>
</g>
<g id="clust10" class="cluster">
<title>cluster_DoctorModule_imports</title>
<polygon fill="none" stroke="#000000" points="16,-78 16,-130 300,-130 300,-78 16,-78"/>
</g>
<!-- DoctorComponent -->
<g id="node1" class="node">
<title>DoctorComponent</title>
<polygon fill="#ffffb3" stroke="#000000" points="1298.205,-122 1177.795,-122 1177.795,-86 1298.205,-86 1298.205,-122"/>
<text text-anchor="middle" x="1238" y="-99.8" font-family="Times,serif" font-size="14.00" fill="#000000">DoctorComponent</text>
</g>
<!-- DoctorModule -->
<g id="node8" class="node">
<title>DoctorModule</title>
<polygon fill="#8dd3c7" stroke="#000000" points="713.4231,-187 710.4231,-191 689.4231,-191 686.4231,-187 614.5769,-187 614.5769,-151 713.4231,-151 713.4231,-187"/>
<text text-anchor="middle" x="664" y="-164.8" font-family="Times,serif" font-size="14.00" fill="#000000">DoctorModule</text>
</g>
<!-- DoctorComponent&#45;&gt;DoctorModule -->
<g id="edge1" class="edge">
<title>DoctorComponent&#45;&gt;DoctorModule</title>
<path fill="none" stroke="#000000" d="M1238,-122.0109C1238,-144.4852 1238,-180 1238,-180 1238,-180 723.4357,-180 723.4357,-180"/>
<polygon fill="#000000" stroke="#000000" points="723.4358,-176.5001 713.4357,-180 723.4357,-183.5001 723.4358,-176.5001"/>
</g>
<!-- EditProfileComponent -->
<g id="node2" class="node">
<title>EditProfileComponent</title>
<polygon fill="#ffffb3" stroke="#000000" points="1160.266,-122 1017.734,-122 1017.734,-86 1160.266,-86 1160.266,-122"/>
<text text-anchor="middle" x="1089" y="-99.8" font-family="Times,serif" font-size="14.00" fill="#000000">EditProfileComponent</text>
</g>
<!-- EditProfileComponent&#45;&gt;DoctorModule -->
<g id="edge2" class="edge">
<title>EditProfileComponent&#45;&gt;DoctorModule</title>
<path fill="none" stroke="#000000" d="M1089,-122.1289C1089,-142.5724 1089,-173 1089,-173 1089,-173 723.5847,-173 723.5847,-173"/>
<polygon fill="#000000" stroke="#000000" points="723.5847,-169.5001 713.5847,-173 723.5846,-176.5001 723.5847,-169.5001"/>
</g>
<!-- FooterComponent -->
<g id="node3" class="node">
<title>FooterComponent</title>
<polygon fill="#ffffb3" stroke="#000000" points="999.8809,-122 882.1191,-122 882.1191,-86 999.8809,-86 999.8809,-122"/>
<text text-anchor="middle" x="941" y="-99.8" font-family="Times,serif" font-size="14.00" fill="#000000">FooterComponent</text>
</g>
<!-- FooterComponent&#45;&gt;DoctorModule -->
<g id="edge3" class="edge">
<title>FooterComponent&#45;&gt;DoctorModule</title>
<path fill="none" stroke="#000000" d="M941,-122.2667C941,-140.5552 941,-166 941,-166 941,-166 723.522,-166 723.522,-166"/>
<polygon fill="#000000" stroke="#000000" points="723.5221,-162.5001 713.522,-166 723.522,-169.5001 723.5221,-162.5001"/>
</g>
<!-- HeaderComponent -->
<g id="node4" class="node">
<title>HeaderComponent</title>
<polygon fill="#ffffb3" stroke="#000000" points="863.7437,-122 742.2563,-122 742.2563,-86 863.7437,-86 863.7437,-122"/>
<text text-anchor="middle" x="803" y="-99.8" font-family="Times,serif" font-size="14.00" fill="#000000">HeaderComponent</text>
</g>
<!-- HeaderComponent&#45;&gt;DoctorModule -->
<g id="edge4" class="edge">
<title>HeaderComponent&#45;&gt;DoctorModule</title>
<path fill="none" stroke="#000000" d="M803,-122.0091C803,-138.0494 803,-159 803,-159 803,-159 723.3976,-159 723.3976,-159"/>
<polygon fill="#000000" stroke="#000000" points="723.3976,-155.5001 713.3976,-159 723.3975,-162.5001 723.3976,-155.5001"/>
</g>
<!-- PatientComponent -->
<g id="node5" class="node">
<title>PatientComponent</title>
<polygon fill="#ffffb3" stroke="#000000" points="724.2162,-122 603.7838,-122 603.7838,-86 724.2162,-86 724.2162,-122"/>
<text text-anchor="middle" x="664" y="-99.8" font-family="Times,serif" font-size="14.00" fill="#000000">PatientComponent</text>
</g>
<!-- PatientComponent&#45;&gt;DoctorModule -->
<g id="edge5" class="edge">
<title>PatientComponent&#45;&gt;DoctorModule</title>
<path fill="none" stroke="#000000" d="M664,-122.1061C664,-122.1061 664,-140.991 664,-140.991"/>
<polygon fill="#000000" stroke="#000000" points="660.5001,-140.9909 664,-150.991 667.5001,-140.991 660.5001,-140.9909"/>
</g>
<!-- PatientsComponent -->
<g id="node6" class="node">
<title>PatientsComponent</title>
<polygon fill="#ffffb3" stroke="#000000" points="585.6611,-122 460.3389,-122 460.3389,-86 585.6611,-86 585.6611,-122"/>
<text text-anchor="middle" x="523" y="-99.8" font-family="Times,serif" font-size="14.00" fill="#000000">PatientsComponent</text>
</g>
<!-- PatientsComponent&#45;&gt;DoctorModule -->
<g id="edge6" class="edge">
<title>PatientsComponent&#45;&gt;DoctorModule</title>
<path fill="none" stroke="#000000" d="M523,-122.0091C523,-138.0494 523,-159 523,-159 523,-159 604.685,-159 604.685,-159"/>
<polygon fill="#000000" stroke="#000000" points="604.6851,-162.5001 614.685,-159 604.685,-155.5001 604.6851,-162.5001"/>
</g>
<!-- RequestComponent -->
<g id="node7" class="node">
<title>RequestComponent</title>
<polygon fill="#ffffb3" stroke="#000000" points="442.4341,-122 315.5659,-122 315.5659,-86 442.4341,-86 442.4341,-122"/>
<text text-anchor="middle" x="379" y="-99.8" font-family="Times,serif" font-size="14.00" fill="#000000">RequestComponent</text>
</g>
<!-- RequestComponent&#45;&gt;DoctorModule -->
<g id="edge7" class="edge">
<title>RequestComponent&#45;&gt;DoctorModule</title>
<path fill="none" stroke="#000000" d="M379,-122.2667C379,-140.5552 379,-166 379,-166 379,-166 604.6822,-166 604.6822,-166"/>
<polygon fill="#000000" stroke="#000000" points="604.6822,-169.5001 614.6822,-166 604.6821,-162.5001 604.6822,-169.5001"/>
</g>
<!-- DoctorRoutingModule -->
<g id="node9" class="node">
<title>DoctorRoutingModule</title>
<polygon fill="#8dd3c7" stroke="#000000" points="291.5407,-122 288.5407,-126 267.5407,-126 264.5407,-122 148.4593,-122 148.4593,-86 291.5407,-86 291.5407,-122"/>
<text text-anchor="middle" x="220" y="-99.8" font-family="Times,serif" font-size="14.00" fill="#000000">DoctorRoutingModule</text>
</g>
<!-- DoctorRoutingModule&#45;&gt;DoctorModule -->
<g id="edge8" class="edge">
<title>DoctorRoutingModule&#45;&gt;DoctorModule</title>
<path fill="none" stroke="#000000" d="M220,-122.1289C220,-142.5724 220,-173 220,-173 220,-173 604.7878,-173 604.7878,-173"/>
<polygon fill="#000000" stroke="#000000" points="604.7878,-176.5001 614.7878,-173 604.7878,-169.5001 604.7878,-176.5001"/>
</g>
<!-- MaterialModule -->
<g id="node10" class="node">
<title>MaterialModule</title>
<polygon fill="#8dd3c7" stroke="#000000" points="130.4706,-122 127.4706,-126 106.4706,-126 103.4706,-122 23.5294,-122 23.5294,-86 130.4706,-86 130.4706,-122"/>
<text text-anchor="middle" x="77" y="-99.8" font-family="Times,serif" font-size="14.00" fill="#000000">MaterialModule</text>
</g>
<!-- MaterialModule&#45;&gt;DoctorModule -->
<g id="edge9" class="edge">
<title>MaterialModule&#45;&gt;DoctorModule</title>
<path fill="none" stroke="#000000" d="M77,-122.0109C77,-144.4852 77,-180 77,-180 77,-180 604.7107,-180 604.7107,-180"/>
<polygon fill="#000000" stroke="#000000" points="604.7108,-183.5001 614.7107,-180 604.7107,-176.5001 604.7108,-183.5001"/>
</g>
</g>
</svg>
