<?xml version="1.0" encoding="UTF-8" standalone="no"?>
<!DOCTYPE svg PUBLIC "-//W3C//DTD SVG 1.1//EN"
 "http://www.w3.org/Graphics/SVG/1.1/DTD/svg11.dtd">
<!-- Generated by graphviz version 2.40.1 (20161225.0304)
 -->
<!-- Title: dependencies Pages: 1 -->
<svg width="1190pt" height="211pt"
 viewBox="0.00 0.00 1190.00 211.00" xmlns="http://www.w3.org/2000/svg" xmlns:xlink="http://www.w3.org/1999/xlink">
<g id="graph0" class="graph" transform="scale(1 1) rotate(0) translate(4 207)">
<title>dependencies</title>
<polygon fill="#ffffff" stroke="transparent" points="-4,4 -4,-207 1186,-207 1186,4 -4,4"/>
<text text-anchor="start" x="570.0091" y="-42.4" font-family="sans-serif" font-weight="bold" font-size="14.00" fill="#000000">Legend</text>
<polygon fill="#ffffb3" stroke="transparent" points="357,-10 357,-30 377,-30 377,-10 357,-10"/>
<text text-anchor="start" x="380.629" y="-15.4" font-family="sans-serif" font-size="14.00" fill="#000000"> &#160;Declarations</text>
<polygon fill="#8dd3c7" stroke="transparent" points="470,-10 470,-30 490,-30 490,-10 470,-10"/>
<text text-anchor="start" x="493.7251" y="-15.4" font-family="sans-serif" font-size="14.00" fill="#000000"> &#160;Module</text>
<polygon fill="#80b1d3" stroke="transparent" points="556,-10 556,-30 576,-30 576,-10 556,-10"/>
<text text-anchor="start" x="579.7812" y="-15.4" font-family="sans-serif" font-size="14.00" fill="#000000"> &#160;Bootstrap</text>
<polygon fill="#fdb462" stroke="transparent" points="653,-10 653,-30 673,-30 673,-10 653,-10"/>
<text text-anchor="start" x="676.6732" y="-15.4" font-family="sans-serif" font-size="14.00" fill="#000000"> &#160;Providers</text>
<polygon fill="#fb8072" stroke="transparent" points="749,-10 749,-30 769,-30 769,-10 749,-10"/>
<text text-anchor="start" x="772.7258" y="-15.4" font-family="sans-serif" font-size="14.00" fill="#000000"> &#160;Exports</text>
<g id="clust1" class="cluster">
<title>cluster_DoctorModule</title>
<polygon fill="none" stroke="#000000" stroke-dasharray="1,5" points="8,-70 8,-195 1174,-195 1174,-70 8,-70"/>
</g>
<g id="clust2" class="cluster">
<title>cluster_DoctorModule_declarations</title>
<polygon fill="none" stroke="#000000" points="308,-78 308,-130 1166,-130 1166,-78 308,-78"/>
</g>
<g id="clust9" class="cluster">
<title>cluster_DoctorModule_imports</title>
<polygon fill="none" stroke="#000000" points="16,-78 16,-130 300,-130 300,-78 16,-78"/>
</g>
<!-- DoctorComponent -->
<g id="node1" class="node">
<title>DoctorComponent</title>
<polygon fill="#ffffb3" stroke="#000000" points="1158.205,-122 1037.795,-122 1037.795,-86 1158.205,-86 1158.205,-122"/>
<text text-anchor="middle" x="1098" y="-99.8" font-family="Times,serif" font-size="14.00" fill="#000000">DoctorComponent</text>
</g>
<!-- DoctorModule -->
<g id="node7" class="node">
<title>DoctorModule</title>
<polygon fill="#8dd3c7" stroke="#000000" points="642.4231,-187 639.4231,-191 618.4231,-191 615.4231,-187 543.5769,-187 543.5769,-151 642.4231,-151 642.4231,-187"/>
<text text-anchor="middle" x="593" y="-164.8" font-family="Times,serif" font-size="14.00" fill="#000000">DoctorModule</text>
</g>
<!-- DoctorComponent&#45;&gt;DoctorModule -->
<g id="edge1" class="edge">
<title>DoctorComponent&#45;&gt;DoctorModule</title>
<path fill="none" stroke="#000000" d="M1098,-122.2921C1098,-144.2057 1098,-178 1098,-178 1098,-178 652.341,-178 652.341,-178"/>
<polygon fill="#000000" stroke="#000000" points="652.341,-174.5001 642.341,-178 652.341,-181.5001 652.341,-174.5001"/>
</g>
<!-- EditProfileComponent -->
<g id="node2" class="node">
<title>EditProfileComponent</title>
<polygon fill="#ffffb3" stroke="#000000" points="1020.266,-122 877.734,-122 877.734,-86 1020.266,-86 1020.266,-122"/>
<text text-anchor="middle" x="949" y="-99.8" font-family="Times,serif" font-size="14.00" fill="#000000">EditProfileComponent</text>
</g>
<!-- EditProfileComponent&#45;&gt;DoctorModule -->
<g id="edge2" class="edge">
<title>EditProfileComponent&#45;&gt;DoctorModule</title>
<path fill="none" stroke="#000000" d="M949,-122.1061C949,-141.3391 949,-169 949,-169 949,-169 652.5003,-169 652.5003,-169"/>
<polygon fill="#000000" stroke="#000000" points="652.5003,-165.5001 642.5003,-169 652.5002,-172.5001 652.5003,-165.5001"/>
</g>
<!-- FooterComponent -->
<g id="node3" class="node">
<title>FooterComponent</title>
<polygon fill="#ffffb3" stroke="#000000" points="859.8809,-122 742.1191,-122 742.1191,-86 859.8809,-86 859.8809,-122"/>
<text text-anchor="middle" x="801" y="-99.8" font-family="Times,serif" font-size="14.00" fill="#000000">FooterComponent</text>
</g>
<!-- FooterComponent&#45;&gt;DoctorModule -->
<g id="edge3" class="edge">
<title>FooterComponent&#45;&gt;DoctorModule</title>
<path fill="none" stroke="#000000" d="M801,-122.027C801,-138.3976 801,-160 801,-160 801,-160 652.2931,-160 652.2931,-160"/>
<polygon fill="#000000" stroke="#000000" points="652.2931,-156.5001 642.2931,-160 652.2931,-163.5001 652.2931,-156.5001"/>
</g>
<!-- PatientComponent -->
<g id="node4" class="node">
<title>PatientComponent</title>
<polygon fill="#ffffb3" stroke="#000000" points="724.2162,-122 603.7838,-122 603.7838,-86 724.2162,-86 724.2162,-122"/>
<text text-anchor="middle" x="664" y="-99.8" font-family="Times,serif" font-size="14.00" fill="#000000">PatientComponent</text>
</g>
<!-- PatientComponent&#45;&gt;DoctorModule -->
<g id="edge4" class="edge">
<title>PatientComponent&#45;&gt;DoctorModule</title>
<path fill="none" stroke="#000000" d="M623.0516,-122.1061C623.0516,-122.1061 623.0516,-140.991 623.0516,-140.991"/>
<polygon fill="#000000" stroke="#000000" points="619.5516,-140.9909 623.0516,-150.991 626.5516,-140.991 619.5516,-140.9909"/>
</g>
<!-- PatientsComponent -->
<g id="node5" class="node">
<title>PatientsComponent</title>
<polygon fill="#ffffb3" stroke="#000000" points="585.6611,-122 460.3389,-122 460.3389,-86 585.6611,-86 585.6611,-122"/>
<text text-anchor="middle" x="523" y="-99.8" font-family="Times,serif" font-size="14.00" fill="#000000">PatientsComponent</text>
</g>
<!-- PatientsComponent&#45;&gt;DoctorModule -->
<g id="edge5" class="edge">
<title>PatientsComponent&#45;&gt;DoctorModule</title>
<path fill="none" stroke="#000000" d="M564.8096,-122.1061C564.8096,-122.1061 564.8096,-140.991 564.8096,-140.991"/>
<polygon fill="#000000" stroke="#000000" points="561.3097,-140.9909 564.8096,-150.991 568.3097,-140.991 561.3097,-140.9909"/>
</g>
<!-- RequestComponent -->
<g id="node6" class="node">
<title>RequestComponent</title>
<polygon fill="#ffffb3" stroke="#000000" points="442.4341,-122 315.5659,-122 315.5659,-86 442.4341,-86 442.4341,-122"/>
<text text-anchor="middle" x="379" y="-99.8" font-family="Times,serif" font-size="14.00" fill="#000000">RequestComponent</text>
</g>
<!-- RequestComponent&#45;&gt;DoctorModule -->
<g id="edge6" class="edge">
<title>RequestComponent&#45;&gt;DoctorModule</title>
<path fill="none" stroke="#000000" d="M379,-122.027C379,-138.3976 379,-160 379,-160 379,-160 533.6354,-160 533.6354,-160"/>
<polygon fill="#000000" stroke="#000000" points="533.6354,-163.5001 543.6354,-160 533.6353,-156.5001 533.6354,-163.5001"/>
</g>
<!-- DoctorRoutingModule -->
<g id="node8" class="node">
<title>DoctorRoutingModule</title>
<polygon fill="#8dd3c7" stroke="#000000" points="291.5407,-122 288.5407,-126 267.5407,-126 264.5407,-122 148.4593,-122 148.4593,-86 291.5407,-86 291.5407,-122"/>
<text text-anchor="middle" x="220" y="-99.8" font-family="Times,serif" font-size="14.00" fill="#000000">DoctorRoutingModule</text>
</g>
<!-- DoctorRoutingModule&#45;&gt;DoctorModule -->
<g id="edge7" class="edge">
<title>DoctorRoutingModule&#45;&gt;DoctorModule</title>
<path fill="none" stroke="#000000" d="M220,-122.1061C220,-141.3391 220,-169 220,-169 220,-169 533.4685,-169 533.4685,-169"/>
<polygon fill="#000000" stroke="#000000" points="533.4685,-172.5001 543.4685,-169 533.4684,-165.5001 533.4685,-172.5001"/>
</g>
<!-- MaterialModule -->
<g id="node9" class="node">
<title>MaterialModule</title>
<polygon fill="#8dd3c7" stroke="#000000" points="130.4706,-122 127.4706,-126 106.4706,-126 103.4706,-122 23.5294,-122 23.5294,-86 130.4706,-86 130.4706,-122"/>
<text text-anchor="middle" x="77" y="-99.8" font-family="Times,serif" font-size="14.00" fill="#000000">MaterialModule</text>
</g>
<!-- MaterialModule&#45;&gt;DoctorModule -->
<g id="edge8" class="edge">
<title>MaterialModule&#45;&gt;DoctorModule</title>
<path fill="none" stroke="#000000" d="M77,-122.2921C77,-144.2057 77,-178 77,-178 77,-178 533.5238,-178 533.5238,-178"/>
<polygon fill="#000000" stroke="#000000" points="533.5238,-181.5001 543.5238,-178 533.5237,-174.5001 533.5238,-181.5001"/>
</g>
</g>
</svg>
